SplineFontDB: 3.0
FontName: Elian
FullName: Elian Script
FamilyName: Elian
Weight: Regular
Copyright: CC0 Public Domain (Michael Harmon 2018)
UComments: "-2017-11-1: Created with FontForge (http://fontforge.org)+AAoA--2018-5-10: Changed to CC0 License (if you still want to credit me that would be great)"
Version: 1.1
ItalicAngle: 0
UnderlinePosition: -100
UnderlineWidth: 50
Ascent: 800
Descent: 200
InvalidEm: 0
LayerCount: 2
Layer: 0 0 "Back" 1
Layer: 1 0 "Fore" 0
XUID: [1021 725 -129833945 28548]
StyleMap: 0x0000
FSType: 0
OS2Version: 0
OS2_WeightWidthSlopeOnly: 0
OS2_UseTypoMetrics: 1
CreationTime: 1509555902
ModificationTime: 1527788579
PfmFamily: 17
TTFWeight: 400
TTFWidth: 5
LineGap: 90
VLineGap: 0
OS2TypoAscent: 0
OS2TypoAOffset: 1
OS2TypoDescent: 0
OS2TypoDOffset: 1
OS2TypoLinegap: 90
OS2WinAscent: 0
OS2WinAOffset: 1
OS2WinDescent: 0
OS2WinDOffset: 1
HheadAscent: 0
HheadAOffset: 1
HheadDescent: 0
HheadDOffset: 1
OS2Vendor: 'PfEd'
Lookup: 4 0 1 "'liga' Standard Ligatures in Latin lookup 1" { "'liga' Standard Ligatures in Latin lookup 1-1"  } ['liga' ('DFLT' <'dflt' > 'latn' <'dflt' > ) ]
Lookup: 258 0 0 "'kern' Horizontal Kerning in Latin lookup 0" { "'kern' Horizontal Kerning in Latin lookup 0-1" [90,8,0] } ['kern' ('DFLT' <'dflt' > 'latn' <'dflt' > ) ]
MarkAttachClasses: 1
DEI: 91125
LangName: 1033
Encoding: ISO8859-1
UnicodeInterp: none
NameList: AGL For New Fonts
DisplaySize: -48
AntiAlias: 1
FitToEm: 0
WinInfo: 19 19 14
BeginPrivate: 0
EndPrivate
TeXData: 1 0 0 520093 260046 173364 789506 1048576 173364 783286 444596 497025 792723 393216 433062 380633 303038 157286 324010 404750 52429 2506097 1059062 262144
BeginChars: 272 71

StartChar: a
Encoding: 97 97 0
Width: 544
VWidth: 0
Flags: W
HStem: 562 92<62.5071 369.111>
VStem: 438.054 69.7328<335.787 559.601>
LayerCount: 2
Fore
SplineSet
406 147 m 1
 406 147 418.000000001 189 436 285 c 0
 437.529327798 293.156414926 438.053983853 303.385052482 438.053983853 314.643477579 c 0
 438.053983853 339.254343458 435.546875 368.786127411 435.546875 392.349609375 c 0
 435.546875 484.876953125 434.134765625 580 386 580 c 0
 320 580 172 562 112 562 c 0
 52 562 29 609 29 609 c 1
 29 609 33 628.000976562 62 640 c 0
 72.158203125 644.203125 124.670898438 654 186 654 c 0
 299.76171875 654 447.778957885 653.030597006 474 624 c 0
 504.390457782 590.353239173 508.222646395 545.306743461 508.222646395 499.947285098 c 0
 508.222646395 484.649794677 507.786781857 469.316708585 507.786781857 454.373294247 c 0
 507.786781857 431.977772288 506.194335081 411.457513111 504 395 c 0
 496 335 406 147 406 147 c 1
EndSplineSet
Validated: 1
EndChar

StartChar: b
Encoding: 98 98 1
Width: 526
VWidth: 0
Flags: W
HStem: 548.614 96.3856<47.4758 350.833>
VStem: 437.91 68.0896<209.915 510.116>
LayerCount: 2
Fore
SplineSet
16 609 m 1
 16 609 65 645 155 645 c 0
 245 645 419 627 461 585 c 0
 503 543 506 327 506 261 c 0
 506 195 443 159 425 144 c 0
 422.322098743 141.768415619 411.3663826 140.820556542 394.760510865 140.820556542 c 0
 304.120294584 140.820556542 45.1433370715 169.060399795 45.1433370715 170.921042102 c 0
 45.1433370715 170.9844264 45.4438746035 171.017198168 46.061842528 171.017198168 c 0
 46.3191307506 171.017198168 46.6314435171 171.01151739 47 171 c 0
 47.5257270913 170.980528626 48.1651945013 170.970914747 48.9139507227 170.970914747 c 0
 86.6194007113 170.970914747 401.46731297 195.350484728 425 213 c 0
 435.394033504 220.795525128 437.910446931 260.101530561 437.910446931 304.111983054 c 0
 437.910446931 345.426747006 435.692858854 390.887302581 435.692858854 418.317769012 c 0
 435.692858854 429.137090834 436.03785526 437.151421042 437 441 c 0
 437.522774425 443.0910977 437.772255751 445.728781598 437.772255751 448.805898714 c 0
 437.772255751 481.04554885 410.386127875 561.522774425 383 567 c 0
 378.811388301 567.83772234 370.996919889 568.207592201 360.536420947 568.207592201 c 0
 296.075922006 568.207592201 131.135943621 554.16227766 95 549 c 0
 93.1739130435 548.739130435 91.3572778828 548.61436673 89.5527245829 548.61436673 c 0
 49.8525519849 548.61436673 16 609 16 609 c 1
EndSplineSet
Validated: 1
EndChar

StartChar: c
Encoding: 99 99 2
Width: 538
VWidth: 0
Flags: W
HStem: 125.333 79.7844<167.223 425.851>
VStem: 458.23 53.77<252.358 524.238>
LayerCount: 2
Fore
SplineSet
59 243 m 1
 59 243 239 225 299 213 c 0
 323.852813742 208.029437252 346.646752982 205.117749006 366.102597104 205.117749006 c 0
 393.61731573 205.117749006 414.455844123 210.941125497 425 225 c 0
 439.632497668 244.509996891 458.229995114 335.389989784 458.229995114 388.050706449 c 0
 458.229995114 400.169969352 457.245001555 410.264995336 455 417 c 0
 443 453 431 723 431 723 c 1
 431 723 485 585 491 519 c 0
 497 453 512 357 512 315 c 0
 512 273 497 147 473 132 c 0
 465 127 433 125.333333333 390.777777778 125.333333333 c 0
 306.333333333 125.333333333 181 132 125 132 c 0
 41 132 16 165 16 177 c 0
 16 189 59 243 59 243 c 1
EndSplineSet
Validated: 1
EndChar

StartChar: d
Encoding: 100 100 3
Width: 558
VWidth: 0
Flags: W
HStem: 544.244 72.2563<96.5641 391.621>
VStem: 32 109<215.126 378.375> 32 60.7163<400.209 535.819> 477 36<209.273 363.037> 478.5 42.18<246.607 492.756>
LayerCount: 2
Fore
SplineSet
111 180 m 1xc0
 111 180 32 219 32 243 c 0xc0
 32 267 32 423 32 477 c 0
 32 531 69 615 105 615 c 0
 123 615 187.5 616.5 252.75 616.5 c 0
 318 616.5 384 615 405 609 c 0
 447 597 513 561 519 489 c 0
 520.2 474.6 520.68 454.68 520.68 431.808 c 0xa8
 520.68 340.32 513 201.6 513 180 c 0
 513 176.865541522 512.514823212 175.4696332 511.657119007 175.4696332 c 0
 505.126620846 175.4696332 477 256.393092657 477 267 c 0x90
 477 273 478.5 318 478.5 365.25 c 0
 478.5 412.5 477 462 471 477 c 0
 459 507 393 531 285 537 c 0
 239.215927607 539.543559577 196.666702875 544.243684263 163.294790293 544.243684263 c 0
 120.437813755 544.243684263 92.7163231134 536.492104091 92.7163231134 506.466630581 c 0xa8
 92.7163231134 504.720686408 92.8100572007 502.899427993 93 501 c 0
 99 441 141 318 141 249 c 0
 141 180 111 180 111 180 c 1xc0
EndSplineSet
Validated: 1
EndChar

StartChar: s
Encoding: 115 115 4
Width: 226
VWidth: 0
Flags: W
HStem: 924 43.5868<-140.38 119.254>
VStem: 58 114<73.2206 170.573> 74.4132 97.5868<224.492 434.987> 125.508 57.4103<660.638 909.833>
LayerCount: 2
Fore
SplineSet
94 177 m 1xc0
 94 177 98.875 177.375 106.1875 177.375 c 0
 128.125 177.375 172 174 172 147 c 0
 172 111 136 45 124 9 c 0
 121.397142274 1.19142682144 117.382853643 -2.10056746194 112.630655644 -2.10056746194 c 0
 95.4737130024 -2.10056746194 68.6985711369 40.8085731786 64 69 c 0
 61 87 58 108 58 126.75 c 0
 58 145.5 61 162 70 171 c 0
 88 189 94 177 94 177 c 1xc0
124 210 m 1
 124 210 74.4132231405 210 74.4132231405 297.903831705 c 0xa0
 74.4132231405 306.694214876 74.9090909091 316.363636364 76 327 c 0
 81.6550600116 383.550600116 125.508099484 794.54291662 125.508099484 881.800160378 c 0
 125.508099484 887.122564135 125.344939988 891.240480092 125 894 c 0
 122 918 37 924 -47.25 924 c 0
 -131.5 924 -215 918 -215 918 c 1
 -215 918 26.3223140496 967.58677686 97.2464312547 967.58677686 c 0
 104.338842975 967.58677686 109.727272727 967.090909091 113 966 c 0
 149 954 155 948 173 906 c 0
 180.714285714 888 182.918367347 866.693877551 182.918367347 845.860058309 c 0x90
 182.918367347 818.081632653 179 791.142857143 179 774 c 0
 179 744 178 435 178 435 c 1
 178 435 172 417 172 369 c 0
 172 321 172 303 172 285 c 0xa0
 172 210 124 210 124 210 c 1
EndSplineSet
Validated: 1
EndChar

StartChar: e
Encoding: 101 101 5
Width: 502
VWidth: 0
Flags: W
HStem: 167.087 63.9132<152.52 300.814> 565.221 20G<330.911 347.063>
VStem: 22.3172 78.6828<308.152 461.68> 376.367 80.5157<288.469 426.229>
LayerCount: 2
Fore
SplineSet
263 585 m 1
 263 585 185 549 137 489 c 0
 102 445 101 417 101 363 c 0
 101 309 131 279 149 255 c 0
 167 231 239 231 269 231 c 0
 299 231 335 273 359 291 c 0
 372.266873708 300.950155281 376.366563146 320.067494832 376.366563146 342.271024855 c 0
 376.366563146 360.234057978 373.683281573 380.217028989 371 399 c 0
 365.079971192 440.440201656 256.940280881 483.827444483 256.940280881 523.398458568 c 0
 256.940280881 523.93300684 256.960014404 524.46685872 257 525 c 0
 263 597 299 579 329 585 c 0
 329.741472257 585.148294451 330.512266174 585.220841284 331.310660571 585.220841284 c 0
 362.815338457 585.220841284 437.296588903 472.258527743 449 443 c 0
 453.970562748 430.573593129 456.882250994 412.656854249 456.882250994 391.239682094 c 0
 456.882250994 360.951226765 451.058874503 323.661904883 437 285 c 0
 413 219 311 183 203 168 c 0
 198.565437186 167.384088498 194.201685807 167.086828458 189.909991967 167.086828458 c 0
 89.6811379767 167.086828458 28.7536353992 329.217281407 23 381 c 0
 22.5360367292 385.175669438 22.3172328634 389.249687414 22.3172328634 393.226215332 c 0
 22.3172328634 440.674377692 53.4692170243 474.242489142 71 501 c 0
 119 573 263 585 263 585 c 1
EndSplineSet
Validated: 1
EndChar

StartChar: f
Encoding: 102 102 6
Width: 497
VWidth: 0
Flags: W
HStem: 195.999 35.8665<148.843 423.654> 559 51.6832G<65 65 460.398 460.947>
VStem: 22.04 99.4453<365.938 554.913> 443 18<424.397 468.861>
LayerCount: 2
Fore
SplineSet
65 579 m 1
 65 579 113 561 119 555 c 0
 120.757359313 553.242640687 121.485281374 545.308657865 121.485281374 533.007142675 c 0
 121.485281374 503.308657865 117.242640687 448.154328933 113 393 c 0
 112.261366246 383.397761202 111.886452374 373.977382344 111.886452374 364.817221364 c 0
 111.886452374 299.568427152 130.90907003 247.522732493 173 237 c 0
 187.884898469 233.278775383 213.732411122 231.865469541 243.206711903 231.865469541 c 0
 308.779511403 231.865469541 392.303061543 238.860612309 413 243 c 0
 443 249 437 321 443 357 c 0
 448.71529872 391.29179232 459.874704016 610.683208235 460.920868215 610.683208235 c 0
 460.972981727 610.683208235 461 610.13880512 461 609 c 0
 461 585 473 339 473 315 c 0
 473 291 461 225 425 201 c 0
 412.439050627 192.626033751 388.92133395 190.09567673 361.32821994 190.09567673 c 0
 319.182059379 190.09567673 267.527999792 195.998997826 230.887528808 195.998997826 c 0
 222.764782068 195.998997826 215.379885599 195.708876178 209 195 c 0
 193.431880245 193.270208916 177.365064292 191.291069733 161.662192378 191.291069733 c 0
 122.897659318 191.291069733 86.3510445808 203.352179632 65 261 c 0
 35 342 53 351 35 411 c 0
 24.2 447 22.04 476.52 22.04 499.56 c 0
 22.04 514.92 23 527.4 23 537 c 0
 23 561 65 579 65 579 c 1
EndSplineSet
Validated: 1
EndChar

StartChar: g
Encoding: 103 103 7
Width: 527
VWidth: 0
Flags: W
HStem: 549 37.5<140.415 409.123>
VStem: 20 66<283.127 498.844>
LayerCount: 2
Fore
SplineSet
1 201 m 1
 1 201 20 450 20 474 c 0
 20 498 92 567 128 579 c 0
 146 585 177.5 586.5 207.5 586.5 c 0
 237.5 586.5 266 585 278 585 c 0
 299.972033613 585 487.058201668 556.50314431 487.058201668 554.756539203 c 0
 487.058201668 554.701321299 486.87121439 554.672839506 486.486111111 554.672839506 c 0
 485.74691358 554.672839506 484.277777778 554.777777778 482 555 c 0
 474.666666667 555.666666667 463.111111111 555.944444444 448.694444444 555.944444444 c 0
 376.611111111 555.944444444 233 549 188 549 c 0
 134 549 86 477 86 459 c 0
 86 441 110 267 116 219 c 0
 116.45577418 215.353806558 116.669196573 212.053829956 116.669196573 209.060621018 c 0
 116.669196573 172.649988301 85.0884516396 181.632677459 74 165 c 0
 72.2857142857 162.428571429 69.5714285714 161.326530612 66.1778425656 161.326530612 c 0
 45.8163265306 161.326530612 1 201 1 201 c 1
EndSplineSet
Validated: 1
EndChar

StartChar: h
Encoding: 104 104 8
Width: 523
VWidth: 0
Flags: W
HStem: 156 40.5496<148.471 358.519> 483 122<210.302 473.002> 493.125 103.875<122.871 395.802>
VStem: 22.3022 68.4385<243.684 463.073>
LayerCount: 2
Fore
SplineSet
504 537 m 1xb0
 504 537 468 483 414 483 c 0xd0
 373.5 483 271.125 493.125 207.28125 493.125 c 0
 186 493.125 169 492 160 489 c 0
 124 477 100 459 100 441 c 0
 100 431 90.7407407407 385.50617284 90.7407407407 337.783264746 c 0
 90.7407407407 299.604938272 96.6666666667 260 118 236 c 0
 145.01145341 205.837210359 214.178649037 196.54961999 286.450432473 196.54961999 c 0
 374.714512858 196.54961999 467.609162728 210.402290682 494 217 c 0
 497.64556962 217.911392405 499.676013459 218.332478769 500.294609554 218.332478769 c 0
 500.43233486 218.332478769 500.500075804 218.311605796 500.500075804 218.270623772 c 0
 500.500075804 216.072067742 305.542774447 156 262 156 c 0
 214 156 70 156 46 206 c 0
 35.6373862899 227.944358445 22.3022116689 308.225224765 22.3022116689 383.876620103 c 0
 22.3022116689 432.332303994 27.773054982 478.88871689 43 507 c 0
 82 579 106 597 166 597 c 0xb0
 206 597 321.555555556 605 399.481481481 605 c 0xd0
 438.444444444 605 468 603 474 597 c 0
 492 579 504 537 504 537 c 1xb0
EndSplineSet
Validated: 1
EndChar

StartChar: i
Encoding: 105 105 9
Width: 500
VWidth: 0
Flags: W
HStem: 183 44.8442<147.243 341.697> 583 20G<77 77>
LayerCount: 2
Fore
SplineSet
77 603 m 1
 77 603 119 573 119 555 c 0
 119 540.176470588 90.5155709343 378.861591696 90.5155709343 305.633014451 c 0
 90.5155709343 289.941176471 91.8235294118 278.294117647 95 273 c 0
 109.756470249 248.405882918 249.519530136 227.84423647 319.244905048 227.84423647 c 0
 334.570814572 227.84423647 346.512940498 228.837646833 353 231 c 0
 389 243 479 261 479 261 c 1
 479 261 401 225 383 219 c 0
 365 213 287 183 233 183 c 0
 179 183 84 189 59 207 c 0
 40.146092456 220.574813432 22.9984400944 391.125103649 22.9984400944 487.029912966 c 0
 22.9984400944 518.293449379 24.8206571299 541.624689053 29 549 c 0
 46 579 77 603 77 603 c 1
EndSplineSet
Validated: 1
EndChar

StartChar: j
Encoding: 106 106 10
Width: 306
VWidth: 0
Flags: W
HStem: 686.067 103.55<-146.948 97.2984>
VStem: 211.636 66.364<32.503 401.677>
LayerCount: 2
Fore
SplineSet
-147 783 m 1
 -147 783 -75 783 -45 789 c 0
 -42.9128784748 789.417424305 -39.7270577148 789.617044797 -35.6014734153 789.617044797 c 0
 19.5735280388 789.617044797 242.83484861 753.912878475 254 726 c 0
 266 696 278 270 278 246 c 0
 278 222 236 -150 236 -150 c 1
 236 -150 210.437869822 -13.6686390533 210.437869822 106.407828858 c 0
 210.437869822 116.414201183 210.615384615 126.307692308 211 136 c 0
 211.432073246 147.665977639 211.635973138 160.462450534 211.635973138 174.171330958 c 0
 211.635973138 350.831290368 177.77579247 679.008170907 162 692 c 0
 156.779281751 696.568128468 132.287791136 698.261611334 100.406635667 698.261611334 c 0
 34.5812183687 698.261611334 -62.7466160606 691.042230657 -87 687 c 0
 -90.800621124 686.366563146 -94.801863372 686.067494832 -98.9413630114 686.067494832 c 0
 -134.011766742 686.067494832 -179.005883371 707.533747416 -196 729 c 0
 -198.329032258 731.941935484 -199.350801249 734.974027055 -199.350801249 738.029966366 c 0
 -199.350801249 759.904058273 -147 783 -147 783 c 1
EndSplineSet
Validated: 1
EndChar

StartChar: k
Encoding: 107 107 11
Width: 411
VWidth: 0
Flags: W
HStem: 808 20G<54.8721 54.8721>
VStem: 323.122 57.8779<-25.1331 325.715>
LayerCount: 2
Fore
SplineSet
54.8720703125 828 m 1
 54.8720703125 828 367.872070312 825 367.872070312 807 c 0
 367.872070312 793.956054688 381 361.358398438 381 115.353515625 c 0
 381 21.87109375 379.104492188 -44.6669921875 373.872070312 -51 c 0
 351.508789062 -77.181640625 242.26953125 -83.1318359375 147.581054688 -83.1318359375 c 0
 68.673828125 -83.1318359375 -0.1279296875 -79 -0.1279296875 -79 c 1
 -0.1279296875 -79 314.872070312 -34 320.872070312 -22 c 0
 322.372070312 -19 323.122070312 29 323.122070312 99.40625 c 0
 323.122070312 310.625 316.372070312 723.5 302.872070312 728 c 0
 295.055664062 730.60546875 258.38671875 732.645507812 215.629882812 732.645507812 c 0
 159.928710938 732.645507812 93.896484375 729.18359375 67.8720703125 719 c 0
 53.005859375 713.182617188 41.5283203125 710.75390625 32.6494140625 710.75390625 c 0
 0.3173828125 710.75390625 2.44140625 742.955078125 0.8720703125 761 c 0
 0.837890625 761.420898438 0.8203125 761.84765625 0.8203125 762.280273438 c 0
 0.8203125 786.495117188 54.8720703125 828 54.8720703125 828 c 1
EndSplineSet
Validated: 1
EndChar

StartChar: l
Encoding: 108 108 12
Width: 370
VWidth: 0
Flags: W
HStem: -14.6667 93.5026<41.2056 262.599> 764.95 20G<324.411 325.89> 764.95 20G<324.411 325.89>
VStem: 284 46.7407<241.793 529.85>
LayerCount: 2
Fore
SplineSet
16 51 m 1xd0
 32 87 l 25
 32 87 104 87 140 81 c 0
 148.49844719 79.583592135 159.33747416 78.83592135 171.09627422 78.83592135 c 0
 209.14855055 78.83592135 256.83281573 86.66563146 266 105 c 0
 278 129 284 297 284 321 c 0
 284 344.122762947 322.98578296 784.950343325 325.835764072 784.950343325 c 0
 325.943887355 784.950343325 326 784.315855579 326 783 c 0
 326 767 330.740740741 617.074074074 330.740740741 452.530864198 c 0
 330.740740741 246.851851852 323.333333333 18.3333333333 290 0 c 0
 270 -11 246 -14.6666666667 220.666666667 -14.6666666667 c 0
 170 -14.6666666667 114 4.51461784623e-015 74 0 c 0
 17.75 0 15.9921875 44.82421875 15.9921875 50.4272460938 c 0
 15.9921875 50.80078125 16 51 16 51 c 1xd0
EndSplineSet
Validated: 1
EndChar

StartChar: r
Encoding: 114 114 13
Width: 416
VWidth: 0
Flags: W
HStem: 4.61583 108.384<121.679 313> 768.122 20G<33.9597 35.9626>
VStem: 13.1308 20.4634<411.423 507.735>
LayerCount: 2
Fore
SplineSet
313 113 m 1
 313 113 373 101 373 83 c 0
 373 65.7780241469 351.029892423 4.61583314054 322.855038194 4.61583314054 c 0
 321.582204164 4.61583314054 320.296706912 4.7406586177 319 5 c 0
 289 11 61 11 31 23 c 0
 18.07398993 28.170404028 13.1307739291 164.964087008 13.1307739291 321.3965938 c 0
 13.1307739291 528.028573137 21.755606042 768.92601007 32 786 c 0
 32.8608117807 787.434686301 33.6232813773 788.121514598 34.2961585688 788.121514598 c 0
 37.6291100866 788.121514598 38.7639103444 771.270170082 38.7639103444 744.98435429 c 0
 38.7639103444 688.880301198 33.5942146556 589.796573802 33.5942146556 519.85042696 c 0
 33.5942146556 490.839134578 34.4835622624 466.840407557 37 453 c 0
 49 387 62 224 79 171 c 0
 81.0953133832 164.190231505 81.8700953626 157.449062043 81.8700953626 150.929211619 c 0
 81.8700953626 132.417189839 75.6239519541 115.689399604 75.6239519541 104.241624877 c 0
 75.6239519541 94.54847043 80.102116707 88.6408165393 96.6420235685 88.6408165393 c 0
 106.222862947 88.6408165393 119.850868512 90.6230556599 139 95 c 0
 198 108 229 113 247 113 c 0
 265 113 313 113 313 113 c 1
EndSplineSet
Validated: 1
EndChar

StartChar: L
Encoding: 76 76 14
Width: 678
VWidth: 0
Flags: W
HStem: 203.762 68.7538<87.1651 336.115>
VStem: 609.22 28.0612<298.122 421.256>
LayerCount: 2
Fore
SplineSet
41 274 m 1
 41 274 114.789016692 272.515983017 208.643074229 272.515983017 c 0
 353.408395697 272.515983017 545.911585286 276.046691356 589 294 c 0
 603.979082317 300.241284299 609.21975721 322.843093072 609.21975721 351.108116511 c 0
 609.21975721 411.514364264 582 502 580.853531931 506.140869267 c 1
 580.853531931 506.140869267 637.280921533 444.9012819 637.280921533 324.644032453 c 0
 637.280921533 306.445068994 635.984891507 286.894491244 633 266 c 0
 625 210 477 238 117 204 c 0
 115.303020748 203.839727469 113.636585085 203.762168489 112.000483637 203.762168489 c 0
 62.764827177 203.762168489 41 274 41 274 c 1
EndSplineSet
Validated: 1
EndChar

StartChar: o
Encoding: 111 111 15
Width: 456
VWidth: 0
Flags: W
HStem: -4.65156 70.677<112.873 340.329> 889 20G<399 399>
VStem: 23.1809 95.0436<134.597 356.968> 38 60.4217<82.5613 269.762>
LayerCount: 2
Fore
SplineSet
105 357 m 1xe0
 105 357 118.224489796 312.918367347 118.224489796 270.096209913 c 0xe0
 118.224489796 262.959183673 117.857142857 255.857142857 117 249 c 0
 112.584660634 213.677285071 98.4217104087 168.606959283 98.4217104087 132.917471503 c 0
 98.4217104087 120.108552044 100.246018098 108.507963803 105 99 c 0
 117.781836926 73.436326148 145.691021556 66.0254695408 175.837201125 66.0254695408 c 0
 188.144327398 66.0254695408 200.824286161 67.2606123087 213 69 c 0
 218.493246941 69.784749563 224.499687112 70.0563058955 230.858229249 70.0563058955 c 0
 245.149940463 70.0563058955 261.220429908 68.6844348453 277.240536183 68.6844348453 c 0
 308.588184715 68.6844348453 339.742918852 73.9372539332 357 105 c 0
 387 159 399 909 399 909 c 25
 399 909 429 201 429 153 c 0
 429 105 423 54 393 27 c 0
 370.888974491 7.10007704165 234.701877531 -4.65155509884 152.594637511 -4.65155509884 c 0
 123.299663302 -4.65155509884 100.888974491 -3.15558979629 93 0 c 0
 63 12 38 39 38 87 c 0xd0
 38 118.689320388 23.180884155 220.987369215 23.180884155 292.030709409 c 0
 23.180884155 328.597134508 27.1067961165 356.883495146 39 363 c 0
 48.5454545455 367.909090909 57.7933884298 369.694214876 66.196093163 369.694214876 c 0
 88.6033057851 369.694214876 105 357 105 357 c 1xe0
EndSplineSet
Validated: 1
EndChar

StartChar: m
Encoding: 109 109 16
Width: 386
VWidth: 0
Flags: W
HStem: 721.846 67.6438<132.972 275.176>
VStem: 19.7543 90.2662<544.726 697.77> 284.928 64.4058<365.425 712.419>
LayerCount: 2
Fore
SplineSet
75 529 m 1
 72.7188359106 527.631301546 68.7724847484 526.418714381 64.0037531122 526.418714381 c 0
 47.8676683943 526.418714381 22.3156507732 540.302360395 20 609 c 0
 19.8345611274 613.301410688 19.7542734299 617.511587973 19.7542734299 621.63254433 c 0
 19.7542734299 692.239303882 43.3235109808 736.654388726 66 765 c 0
 83.1428571429 786.428571429 153.346938776 789.489795918 207.370262391 789.489795918 c 0
 228.979591837 789.489795918 248 789 260 789 c 0
 302 789 332 741 344 711 c 0
 348 701 349.333333333 664.333333333 349.333333333 618.111111111 c 0
 349.333333333 525.666666667 344 395 344 363 c 0
 344 315 254 -12 254 -12 c 1
 254 -12 252.5 14.25 252.5 54 c 0
 252.5 93.75 254 147 260 201 c 0
 268.230227492 275.072047429 284.927535556 470.505583048 284.927535556 595.664108792 c 0
 284.927535556 652.991706351 281.42443127 695.57556873 272 705 c 0
 259.22497216 717.77502784 246.449944321 721.84598441 232.284982071 721.84598441 c 0
 213.185917595 721.84598441 191.559955457 714.444994432 164 711 c 0
 118.689247712 705.336155964 109.913059308 678.286225752 109.913059308 629.850209363 c 0
 109.913059308 626.975473463 109.943974006 624.025403676 110 621 c 0
 110.01369863 620.150684932 110.020454119 619.307374742 110.020454119 618.47006429 c 0
 110.020454119 558.183711766 75 529 75 529 c 1
EndSplineSet
Validated: 1
EndChar

StartChar: p
Encoding: 112 112 18
Width: 238
VWidth: 0
Flags: W
HStem: -27 21G<97 97> 799 37.7235<105.203 243.583>
VStem: 16.2282 64.3144<378.805 661.072> 24 127<-2.45297 130.706>
LayerCount: 2
Fore
SplineSet
97 -27 m 1xd0
 97 -27 67 -27 43 0 c 0
 30 14 24 57 24 93 c 0xd0
 24 110.470588235 16.2281574394 270.660467128 16.2281574394 435.505139426 c 0xe0
 16.2281574394 610.340397924 24.9705882353 790.411764706 61 811 c 0
 102.539121205 834.736640688 156.305414961 840.377066001 204.280311176 840.377066001 c 0
 247.72979412 840.377066001 286.428939031 835.750561485 306.992325081 835.750561485 c 0
 309.637901918 835.750561485 311.983294967 835.827139569 314 836 c 0
 320.42002587 836.493848144 324.922836881 836.723486466 327.757124786 836.723486466 c 0
 330.339783493 836.723486466 331.537032143 836.532812906 331.537032143 836.177622752 c 0
 331.537032143 832.186783887 180.393034217 807.426912909 145 799 c 0
 91.9751399249 786.763493829 80.5425252046 756.965817397 80.5425252046 702.067063045 c 0
 80.5425252046 676.20930369 83.0788353904 644.782903989 85 607 c 0
 87 559 97 351 103 315 c 0
 109 279 109 195 121 159 c 0
 133 123 151 54 151 27 c 0
 151 0 97 -27 97 -27 c 1xd0
EndSplineSet
Validated: 1
EndChar

StartChar: u
Encoding: 117 117 19
Width: 452
VWidth: 0
Flags: W
HStem: 0 90.958<37.6975 264.994> 0 66.2747<147.993 352.369> 819.687 20G<353.259 362.648>
VStem: 341 84.5867<744.26 809.621> 377 42<475.39 684.676>
LayerCount: 2
Fore
SplineSet
389 729 m 1x30
 389 729 341 747 341 783 c 0
 341 813.496575182 345.305745823 839.68740454 361.212265315 839.68740454 c 0
 364.08276253 839.68740454 367.331050121 838.834474939 371 837 c 0
 395 825 419 795 425 771 c 0
 425.4 769.4 425.586666667 767.826666667 425.586666667 766.283555556 c 0
 425.586666667 744.68 389 729 389 729 c 1x30
87.916015625 90.9580078125 m 0xa8
 146.845703125 90.9580078125 246.576560607 78.2107383693 265 69 c 0
 269.309395406 66.8455318377 281.907115942 66.2747046025 295.415438311 66.2747046025 c 0
 310.642164356 66.2747046025 327.02590478 67 334 67 c 0
 355.294921875 67 347.875388203 91.5835921352 359 99 c 0
 377 111 371 555 377 579 c 0
 383 603 383 681 389 687 c 0
 392.341070653 690.341070653 403.123976711 699.263517859 410.988844059 699.263517859 c 0
 415.97541068 699.263517859 419.788940882 695.67674038 419.788940882 684.806494127 c 0
 419.788940882 682.032470633 419.540588292 678.784118043 419 675 c 0
 413 633 407 15 395 0 c 0
 391 -5 383 -6.66666666667 372.333333333 -6.66666666667 c 0
 351 -6.66666666667 319 0 287 0 c 1x68
 239 0 107 0 71 0 c 0
 42.7344887025 0 27.9880015105 19.7540838385 27.9880015105 40.8505101874 c 0
 27.9880015105 65.0230855437 47.3485044925 90.9580078125 87.916015625 90.9580078125 c 0xa8
EndSplineSet
Validated: 1
EndChar

StartChar: t
Encoding: 116 116 20
Width: 478
VWidth: 0
Flags: W
HStem: 20 32<186.54 207.594> 721 84<83.3591 152.841> 727 70<223.33 381.658> 769 36<20.3952 64.5651>
VStem: 391.217 44.783<520.398 636.699 638.093 714.764>
LayerCount: 2
Fore
SplineSet
172 805 m 1x98
 172 805 166 721 142 721 c 0xc8
 118 721 60 757 24 769 c 0
 16.3955830577 771.534805647 13.2531381086 774.605047934 13.2531381086 777.871419906 c 0
 13.2531381086 790.068349311 57.0696112949 805 76 805 c 0
 100 805 172 805 172 805 c 1x98
255 52 m 0
 314.63302408 58.6258915645 348.537109375 54.5322265625 355 60 c 0
 360.251953125 64.443359375 391.217045933 412.964699224 391.217045933 548.056141272 c 0
 391.217045933 579.594534505 390.271266236 601.32183441 388 607 c 0
 384.683281573 615.291796068 383.658359214 625.875388203 383.658359214 637.230527955 c 0
 383.658359214 655.603530023 386.341640786 675.996469977 386.341640786 691.969472045 c 0
 386.341640786 701.841330224 385.316718427 710.024922359 382 715 c 0
 374.8 725.8 361.12 727.96 342.256 727.96 c 0
 329.68 727.96 314.8 727 298 727 c 0
 237.816377698 727 210.49209091 751.779171043 210.49209091 774.452990747 c 0
 210.49209091 782.672180546 214.082611949 790.614718722 221 797 c 1
 221 797 389 797 431 797 c 0xa8
 446.206896552 797 451.057372176 792.542806183 451.057372176 784.862509738 c 0
 451.057372176 771.330558859 436 747.793103448 436 721 c 0
 436 679 432 0 405 0 c 0
 263.547417202 0 207 0 67 20 c 1
 131 44 183 44 255 52 c 0
EndSplineSet
Validated: 1
EndChar

StartChar: n
Encoding: 110 110 21
Width: 478
VWidth: 0
Flags: W
HStem: 0 73.6668<133.613 270.8> 841.404 20G<427.782 431.532>
VStem: 23.7197 71.7134<126.324 230.013> 366 66<155.625 536.886>
LayerCount: 2
Fore
SplineSet
202 405 m 1
 202 405 287 403 300 399 c 0
 313.548541164 394.605878541 318.113357833 382.16663067 318.113357833 368.163321196 c 0
 318.113357833 343.924694194 304.436762483 315 300 315 c 1
 300 315 289.244444444 326.831111111 258.268444444 326.831111111 c 0
 247.004444444 326.831111111 233.066666667 325.266666667 216 321 c 0
 168 309 102 237 96 171 c 0
 95.6204993518 166.82549287 95.4330263596 162.843013396 95.4330263596 159.041934029 c 0
 95.4330263596 102.746999568 136.554007778 86.2409987036 204 75 c 0
 209.436014412 74.0939975981 214.872028823 73.666818735 220.279638663 73.666818735 c 0
 286.495810328 73.666818735 348.453001201 137.718007206 354 171 c 0
 360 207 366 285 366 327 c 0
 366 366.460324136 424.259486362 861.403905285 431.305210712 861.403905285 c 0
 431.758675209 861.403905285 432 859.353730052 432 855 c 0
 432 783 432 405 432 375 c 0
 432 213 400 123 400 105 c 0
 400 87 244 0 214 0 c 0
 184 0 166 0 124 27 c 0
 83.583170918 52.982247267 23.7196742999 151.194973954 23.7196742999 185.295987751 c 0
 23.7196742999 186.631761352 23.8115272717 187.86916363 24 189 c 0
 54 363 202 405 202 405 c 1
EndSplineSet
Validated: 1
EndChar

StartChar: q
Encoding: 113 113 22
Width: 416
VWidth: 0
Flags: W
HStem: -8.67769 99.5782<113.286 349.147> -6 117.578<207.941 369.818> 779.598 20G<236.034 299.053>
VStem: 19.5556 45.4444<404.233 735.201> 28 58.0323<117.902 444.531>
LayerCount: 2
Fore
SplineSet
374 21 m 1x68
 374 21 353 -6 347 -6 c 0x68
 343.727272727 -6 272.619834711 -8.67768595041 204.758076634 -8.67768595041 c 0
 148.20661157 -8.67768595041 93.9090909091 -6.81818181818 83 0 c 0
 59 15 28 165 28 225 c 0xa8
 28 265 19.5555555556 478.333333333 19.5555555556 625 c 0xb0
 19.5555555556 698.333333333 21.6666666667 755 28 765 c 0xa8
 42.0914903487 787.249721603 189.296455102 799.598440978 282.772485418 799.598440978 c 0
 315.333129155 799.598440978 341.374582405 798.100111359 353 795 c 0
 356.412184675 794.090084087 357.995986459 793.249163754 357.995986459 792.456312277 c 0
 357.995986459 782.793013258 122.725210217 780.27025226 95 747 c 0
 65 711 65 663 65 603 c 0xb0
 65 543 71 279 83 255 c 0
 85.2629658164 250.474068367 86.032302466 244.241131973 86.032302466 236.86452944 c 0
 86.032302466 221.193814796 82.5602901266 200.36174076 82.5602901266 179.769215416 c 0
 82.5602901266 158.653114003 86.2111025509 137.788897449 101 123 c 0
 126.834474939 97.1655250606 156.273842369 90.9004664985 190.426798774 90.9004664985 c 0
 203.865536548 90.9004664985 218.034088105 91.8704972155 233 93 c 0
 305 99 272 93 347 111 c 0
 348.608695652 111.391304348 350.128544423 111.578449905 351.564231117 111.578449905 c 0
 371.563094883 111.578449905 375.231148046 75.2647235939 375.231148046 48.6230743063 c 0
 375.231148046 33.188365651 374 21 374 21 c 1x68
EndSplineSet
Validated: 1
EndChar

StartChar: period
Encoding: 46 46 23
Width: 692
VWidth: 0
Flags: W
HStem: 152.873 138.026<192.011 334.585>
LayerCount: 2
Fore
SplineSet
192 319 m 1
 192 319 264 319 288 295 c 0
 290.875946561 292.124053439 297.600237552 290.899448703 307.157651667 290.899448703 c 0
 362.011353607 290.899448703 510.189739005 331.238623617 559.756411095 331.238623617 c 0
 570.109235328 331.238623617 576.160096635 329.478816094 576.160096635 325.224070881 c 0
 576.160096635 323.779785819 575.462866868 322.048013615 574 320 c 0
 545.52414237 280.133799318 253.964568537 152.873350446 193.625720344 152.873350446 c 0
 190.396142633 152.873350446 187.828970844 153.237928815 186 154 c 0
 150 169 126 205 126 235 c 0
 126 265 192 319 192 319 c 1
EndSplineSet
Validated: 1
EndChar

StartChar: U
Encoding: 85 85 24
Width: 452
VWidth: 0
Flags: W
HStem: 0 114.957<44.6289 268.994> 0 86.459<189.105 362.103> 819.687 20G<353.259 362.648>
VStem: 341 84.5867<744.26 809.621> 377 42<475.39 684.676>
LayerCount: 2
Fore
SplineSet
389 729 m 1x30
 389 729 341 747 341 783 c 0
 341 813.496575182 345.305745823 839.68740454 361.212265315 839.68740454 c 0
 364.08276253 839.68740454 367.331050121 838.834474939 371 837 c 0
 395 825 419 795 425 771 c 0
 425.4 769.4 425.586666667 767.826666667 425.586666667 766.283555556 c 0
 425.586666667 744.68 389 729 389 729 c 1x30
28 87 m 1
 28 87 27.6875 87.75 27.6875 89.0625 c 0
 27.6875 93 30.5 102 53 111 c 0
 59.9722436227 113.788897449 74.0742738117 114.95738886 91.916730868 114.95738886 c 0xa8
 150.846363351 114.95738886 250.577794898 102.211102551 269 93 c 0
 278.16718427 88.416407865 290.83592135 86.4589803375 303.99689438 86.4589803375 c 0
 325.291796068 86.4589803375 347.875388203 91.583592135 359 99 c 0
 377 111 371 555 377 579 c 0
 383 603 383 681 389 687 c 0
 392.341070653 690.341070653 403.123976711 699.263517859 410.988844059 699.263517859 c 0
 415.97541068 699.263517859 419.788940882 695.67674038 419.788940882 684.806494127 c 0
 419.788940882 682.032470633 419.540588292 678.784118043 419 675 c 0
 413 633 407 15 395 0 c 0
 391 -5 383 -6.66666666667 372.333333333 -6.66666666667 c 0
 351 -6.66666666667 319 0 287 0 c 1x68
 239 0 107 0 71 0 c 0xa8
 35 0 28 87 28 87 c 1
EndSplineSet
Validated: 1
EndChar

StartChar: v
Encoding: 118 118 25
Width: 470
VWidth: 0
Flags: W
HStem: 740.315 66.6851<127.461 301.066>
VStem: 25 52.6857<495.637 690.515> 191 4.09338<298.649 303> 323 86.6667<158.961 478.582> 359.587 56.4133<431.339 696.73>
LayerCount: 2
Fore
SplineSet
77 459 m 1xe0
 77 459 98 456 119 435 c 0
 155 399 173 404 179 369 c 0
 187.554931316 321.947877761 195.093378607 297.25840408 195.093378607 294.931578956 c 0
 195.093378607 294.810526319 195.072975189 294.75 195.03125 294.75 c 0
 194.75 294.75 193.5 297.5 191 303 c 0
 181 325 125 339 107 357 c 0
 89 375 77 375 65 393 c 0
 62.6 396.6 61.64 401.4 61.64 406.776 c 0
 61.64 428.28 77 459 77 459 c 1xe0
281 84 m 1
 281 84 323 237 323 255 c 0xf0
 323 271.8 359.586666667 607.426666667 359.586666667 666.736888889 c 0
 359.586666667 670.973333333 359.4 673.8 359 675 c 0
 353 693 287 735 239 735 c 0
 216.411764706 735 197.14532872 740.314878893 178.074292693 740.314878893 c 0
 156.619377163 740.314878893 135.411764706 733.588235294 110 705 c 0
 84.6083900023 676.434438753 77.6857186531 631.078933279 77.6857186531 592.026018179 c 0
 77.6857186531 557.253763272 83.1739512497 527.478146251 86 519 c 0
 86.5462567626 517.361229712 86.8024058648 515.622993941 86.8024058648 513.821515148 c 0
 86.8024058648 497.58822315 66.003153161 476.219611234 49.252083848 476.219611234 c 0
 47.4437951284 476.219611234 45.6826812724 476.468626967 44 477 c 0
 25 483 25 609 25 621 c 0
 25 633 44 717 50 729 c 0
 56 741 146 807 188 807 c 0
 230 807 311 790 335 771 c 0
 389 729 416 747 416 639 c 0xe8
 416 531 407 291 407 237 c 0
 407 201 409.666666667 173 409.666666667 139.666666667 c 0
 409.666666667 123 409 105 407 84 c 0
 401.643161516 26.860389499 385.658279124 9.04454145363 366.003795723 9.04454145363 c 0
 352.636870859 9.04454145363 337.572646062 17.2849026252 323 27 c 0xf0
 287 51 281 84 281 84 c 1
EndSplineSet
Validated: 1
EndChar

StartChar: x
Encoding: 120 120 26
Width: 468
VWidth: 0
Flags: W
HStem: -10.4255 61.4255<98.7431 321.466> 732.932 20G<51.3259 51.6513>
VStem: 20 30.4186<484.658 685.945> 291 96<355.992 418.787> 327.971 101.43<72.398 250.222>
LayerCount: 2
Fore
SplineSet
321 339 m 1xf0
 321 339 291 351 291 363 c 0
 291 375 291 393 279 441 c 0
 273 465 271.5 481.5 271.5 492 c 0
 271.5 502.5 273 507 273 507 c 1
 273 507 387 409 387 387 c 0
 387 351 321 339 321 339 c 1xf0
393 291 m 1
 393 291 417 273 423 261 c 0
 425.859762657 255.280474687 429.401045518 235.930545286 429.401045518 206.848183859 c 0
 429.401045518 174.913534606 425.131068045 131.243797494 411 81 c 0
 384 -15 381 27 231 0 c 0
 191.791918129 -7.0574547368 162.832327485 -10.425452632 140.906638602 -10.425452632 c 0
 78.9503017546 -10.425452632 73.1583836258 16.4673943859 51 63 c 0
 21 126 20 465 20 501 c 0
 20 533.954139606 51.0039249497 752.93182891 51.6479507578 752.93182891 c 0
 51.6547099396 752.93182891 51.658125 752.907708672 51.658125 752.859 c 0
 51.658125 752.47875 51.45 750.6 51 747 c 0
 50.6055512755 743.844410204 50.4185556126 738.095657136 50.4185556126 730.108335711 c 0
 50.4185556126 616.599691833 88.1833461736 51 105 51 c 0
 123 51 309 63 321 69 c 0
 325.43277675 71.2163883751 326.590635214 77.526424608 326.590635214 86.7203602288 c 0
 326.590635214 96.777020947 325.205283153 110.284203543 325.205283153 125.658648518 c 0
 325.205283153 134.278487478 325.640754482 143.485281374 327 153 c 0
 327.676209992 157.733469946 327.971370023 162.314519907 327.971370023 166.751738877 c 0xe8
 327.971370023 197.248670961 314.028629977 220.951329039 314.028629977 240.648261123 c 0
 314.028629977 243.51411007 314.323790008 246.295160031 315 249 c 0
 321 273 393 291 393 291 c 1
EndSplineSet
Validated: 1
EndChar

StartChar: D
Encoding: 68 68 27
Width: 530
VWidth: 0
Flags: W
HStem: 493.331 65.7506<168.626 344.032>
VStem: 33.2717 78.4483<210.333 431.768> 439 0.566893<187.012 226.829>
LayerCount: 2
Fore
SplineSet
145 193 m 1
 145 193 101.462585034 174.859410431 62.7626606198 174.859410431 c 0
 60.8276643991 174.859410431 58.9047619048 174.904761905 57 175 c 0
 40.1918358845 175.840408206 33.2716751017 207.757398314 33.2716751017 253.389091409 c 0
 33.2716751017 316.351514319 46.4465312924 405.424492346 65 475 c 0
 81.57967926 537.173797225 149.700439339 559.081125061 220.404569425 559.081125061 c 0
 286.164608958 559.081125061 354.15935852 540.13048111 385 517 c 0
 433.761904762 480.428571429 439.566893424 308.020408163 439.566893424 227.994493035 c 0
 439.566893424 202.986394558 439 187 439 187 c 1
 439 187 397 487 339 487 c 0
 317 487 283.77764566 493.330558859 249.592808233 493.330558859 c 0
 193.653983353 493.330558859 135.137931034 476.379310345 119 387 c 0
 113.8 358.2 111.72 333.16 111.72 311.528 c 0
 111.72 225 145 193 145 193 c 1
EndSplineSet
Validated: 1
EndChar

StartChar: E
Encoding: 69 69 28
Width: 502
VWidth: 0
Flags: W
HStem: 181.984 56.7347<200.89 350.784> 582.952 38.8905<147.165 338.198>
VStem: 27.071 85.7566<337.147 456.476> 415.512 48.3107<308.97 506.914>
LayerCount: 2
Fore
SplineSet
169 537 m 0
 169.348034307 535.060951716 169.513140797 533.084823469 169.513140797 531.073458844 c 0
 169.513140797 493.804702888 112.82759642 444.438341107 112.82759642 394.702417165 c 0
 112.82759642 302.880721565 202.821695059 238.718693275 278.330379688 238.718693275 c 0
 323.816995519 238.718693275 367.999191696 260.32725017 395 311 c 0
 409.31447435 337.864150492 415.511877522 370.600991995 415.511877522 403.416658883 c 0
 415.511877522 468.085406767 391.444089071 533.060275234 358 554 c 0
 329.771151672 571.674205934 280.585431666 582.952062788 232.613594274 582.952062788 c 0
 201.130626798 582.952062788 170.170483072 578.094647967 146 567 c 1
 169 556 166.597067823 550.387764984 169 537 c 0
187.48046875 621.840820312 m 1
 187.48046875 621.840820312 208.196970785 624.351753292 237.739651495 624.351753292 c 0
 291.904319488 624.351753292 375.738136121 615.911266582 415.959960938 568.080078125 c 0
 449.294731224 528.438871218 463.822539166 463.405105613 463.822539166 401.751772124 c 0
 463.822539166 348.438636363 452.959398114 297.653212357 434 268 c 0
 395.038409729 207.063638262 340.001223018 181.983958013 282.959346173 181.983958013 c 0
 159.695739778 181.983958013 27.0709796063 299.096692602 27.0709796063 424.574200763 c 0
 27.0709796063 469.650509766 44.186477416 515.806309986 85 558 c 0
 145.629232443 620.679496341 184.515319703 621.842547953 187.318027882 621.842547953 c 0
 187.42604813 621.842547953 187.48046875 621.840820312 187.48046875 621.840820312 c 1
EndSplineSet
Validated: 1
EndChar

StartChar: I
Encoding: 73 73 30
Width: 432
VWidth: 0
Flags: W
HStem: 211.744 49.0186<88.72 209.445> 539.577 20G<89.3011 98.1984>
VStem: 35.3804 54.9268<271.292 546.335>
LayerCount: 2
Fore
SplineSet
105.217773438 558.879882812 m 1
 105.217773438 558.879882812 90.307155934 442.023308193 90.307155934 356.406412033 c 0
 90.307155934 315.191127613 93.7625157078 281.215270284 104 271 c 0
 111.422260026 263.593385645 131.958137547 260.762597598 159.016345734 260.762597598 c 0
 246.803592576 260.762597598 403.245117188 290.559570312 403.245117188 290.559570312 c 1
 403.245117188 290.559570312 164.612939236 211.744000093 93.3082981336 211.744000093 c 0
 84.131770798 211.744000093 77.7265754003 213.04936866 74.9580078125 215.99609375 c 0
 57.2990052379 234.792210234 35.3804051295 388.547728909 35.3804051295 479.030587784 c 0
 35.3804051295 512.957278407 38.4619122972 537.988548988 46.0048828125 543.674804688 c 0
 63.9476757973 557.200793213 83.52938478 559.576563871 95.0728712663 559.576563871 c 0
 101.323903572 559.576563871 105.217773438 558.879882812 105.217773438 558.879882812 c 1
EndSplineSet
Validated: 1
EndChar

StartChar: P
Encoding: 80 80 31
Width: 626
VWidth: 0
Flags: W
HStem: 505.207 17.3381<377.468 466.553>
VStem: 21.5812 70.926<328.927 456.211>
LayerCount: 2
Fore
SplineSet
68.6611328125 231.619140625 m 1
 68.6611328125 231.619140625 21.5811644888 328.004398465 21.5811644888 430.758751085 c 0
 21.5811644888 439.165506362 21.8962964973 447.614893478 22.578125 456.057617188 c 0
 26.8244145043 508.637186586 153.387726277 522.544686436 286.105351134 522.544686436 c 0
 435.170759534 522.544686436 592 505 592 505 c 1
 592 505 578.882092888 505.206620854 556.915366459 505.206620854 c 0
 447.036669438 505.206620854 115.755918163 500.036859805 97.3662109375 437.978515625 c 0
 93.9224682276 426.357179421 92.5071285499 415.647180708 92.5071285499 405.62346561 c 0
 92.5071285499 359.341261362 122.681019921 327.690065924 122.681019921 288.516374018 c 0
 122.681019921 281.810396182 121.796787279 274.883974888 119.725585938 267.625976562 c 0
 110.271754911 234.497430152 95.2759645354 227.259325384 83.9756655144 227.259325384 c 0
 75.2054241479 227.259325384 68.6611328125 231.619140625 68.6611328125 231.619140625 c 1
EndSplineSet
Validated: 1
EndChar

StartChar: y
Encoding: 121 121 32
Width: 434
VWidth: 0
Flags: W
HStem: 608.143 21G<362.108 363.342> 759.694 59.0962<78.0302 300.853>
VStem: 40 56.4132<592.305 752.919> 361.971 24.0292<620.698 666.603>
LayerCount: 2
Fore
SplineSet
326 723 m 1
 326 723 345.834710744 747.79338843 362.964688204 747.79338843 c 0
 364.67768595 747.79338843 366.363636364 747.545454545 368 747 c 0
 386 741 386 699 386 675 c 0
 386 652.747289404 364.507676699 608.142562576 362.175338385 608.142562576 c 0
 362.041525516 608.142562576 361.970780469 608.289385395 361.970780469 608.595675871 c 0
 361.970780469 608.708573626 361.980392157 608.843137255 362 609 c 0
 362.025337032 609.228033285 362.03783476 609.467621944 362.03783476 609.718424401 c 0
 362.03783476 619.366273817 343.543933429 645.608088761 326 669 c 0
 320 677 318 685.666666667 318 693.666666667 c 0
 318 709.666666667 326 723 326 723 c 1
56 33 m 1
 56 33 56 51 40 81 c 0
 34.6666666667 91 32.8888888889 171.666666667 32.8888888889 275.888888889 c 0
 32.8888888889 484.333333333 40 787 40 807 c 0
 40 815.619142055 62.1217949066 818.790379394 93.9385752881 818.790379394 c 0
 172.86407127 818.790379394 311.447656822 799.276171589 320 795 c 0
 323.100111359 793.449944321 324.598440978 789.497216032 324.598440978 784.486692696 c 0
 324.598440978 770.102338533 312.249721603 747 290 747 c 0
 268.181818182 747 182.892561983 759.694214876 133.377911345 759.694214876 c 0
 114.809917355 759.694214876 101.272727273 757.909090909 98 753 c 0
 96.9090909091 751.363636364 96.4132231405 744.47107438 96.4132231405 733.273478588 c 0
 96.4132231405 621.297520661 146 78.8181818182 146 57 c 0
 146 33 116 0 86 0 c 0
 56 0 56 33 56 33 c 1
EndSplineSet
Validated: 1
EndChar

StartChar: w
Encoding: 119 119 33
Width: 442
VWidth: 0
Flags: W
HStem: -0.5625 63.2336<142.288 288.995> 327.798 96.4096<173.809 278.566> 718.875 78.6103<115.415 199.968> 757 20G<67 68.5>
VStem: 18.7365 58.8326<129.446 375.417> 33.6667 51.7347<187.461 640.257> 320.09 84.8108<99.4505 279.944>
LayerCount: 2
Fore
SplineSet
109 729 m 1xe2
 109 729 99.9112426036 751.721893491 99.9112426036 770.598543468 c 0
 99.9112426036 782.396449704 103.461538462 792.692307692 115 795 c 0
 123.786796564 796.757359313 136.176623509 797.485281374 149.908116908 797.485281374 c 0
 183.058874503 797.485281374 224.029437252 793.242640687 241 789 c 0
 244.572180472 788.106954882 246.150536987 786.283458584 246.150536987 783.786705237 c 0
 246.150536987 769.508807695 194.53477441 733.213909764 169 723 c 0
 161.5 720 154 718.875 146.96875 718.875 c 0
 125.875 718.875 109 729 109 729 c 1xe2
151 363 m 1
 151 363 169 417 187 423 c 0
 189.513167019 423.83772234 193.780780836 424.207592201 199.29659792 424.207592201 c 0
 233.286594318 424.207592201 314.67544468 410.16227766 325 405 c 0
 337 399 367 351 394 279 c 0
 401.576880247 258.794986009 404.90123351 235.754954029 404.90123351 211.868847745 c 0
 404.90123351 150.637485009 383.055617421 83.8462395065 355 45 c 0
 325.75 4.5 306.625 -0.5625 273.578125 -0.5625 c 0
 262.5625 -0.5625 250 0 235 0 c 0
 175 0 85 33 43 75 c 0
 24.3874945699 93.6125054301 18.7364821406 122.82986877 18.7364821406 155.341609448 c 0xda
 18.7364821406 196.194151381 27.6589293472 242.248222819 31 279 c 0
 33 301 33.6666666667 333.666666667 33.6666666667 368.555555556 c 0
 33.6666666667 438.333333333 31 517 31 537 c 0
 31 567 67 777 67 777 c 0
 70 744 68 668 85 423 c 0
 85.2778850331 418.553839471 85.4013298829 412.563277109 85.4013298829 405.347803275 c 0xd6
 85.4013298829 347.873791056 77.5690843182 212.682421961 77.5690843182 161.238450708 c 0
 77.5690843182 149.416603005 77.9826914723 142.017308528 79 141 c 0
 84.7780934178 135.221906582 129.506944304 62.6710860751 229.262346613 62.6710860751 c 0
 233.093433926 62.6710860751 237.00568152 62.7780934178 241 63 c 0
 304.095885962 66.5053269979 320.090388702 129.399354579 320.090388702 184.682647862 c 0
 320.090388702 224.026691743 311.989346004 259.515980994 307 267 c 0
 295 285 277 321 241 327 c 0
 237.696938457 327.550510257 234.696938457 327.797958971 231.944387171 327.797958971 c 0
 207.449489743 327.797958971 202.550510257 308.202041029 178.055612829 308.202041029 c 0
 175.303061543 308.202041029 172.303061543 308.449489743 169 309 c 0
 151 312 146.5 325.5 146.5 338.25 c 0
 146.5 351 151 363 151 363 c 1
EndSplineSet
Validated: 1
EndChar

StartChar: z
Encoding: 122 122 34
Width: 448
VWidth: 0
Flags: W
HStem: 0 75.7333<105.191 254.398> 733.278 61.7224<212.823 293.217> 746.388 20G<376.929 392.796> 754.596 50.233<78.5029 285.303>
VStem: 24.2222 39.7778<334.91 727.549> 335.224 58.7755<600.281 693.918>
LayerCount: 2
Fore
SplineSet
340 741 m 1xac
 340 741 365.388429752 766.388429752 388.468820436 766.388429752 c 0
 397.123966942 766.388429752 405.454545455 762.818181818 412 753 c 0
 417.333333333 745 419.407407407 736.111111111 419.407407407 726.794238683 c 0
 419.407407407 694.185185185 394 656.333333333 394 633 c 0
 394 603 322 567 322 567 c 17
 322 567 335.224489796 637.530612245 335.224489796 669.017492711 c 0
 335.224489796 674.265306122 334.857142857 678.428571429 334 681 c 0
 332.8 684.6 332.32 689.16 332.32 694.152 c 0
 332.32 714.12 340 741 340 741 c 1xac
370 111 m 1
 370 111 390.833333333 52.6666666667 390.833333333 29.75 c 0
 390.833333333 25.1666666667 390 22 388 21 c 0
 376 15 268 0 262 0 c 0
 256 0 42 0 42 0 c 17
 42 0 24.2222222222 326.666666667 24.2222222222 555.111111111 c 0
 24.2222222222 669.333333333 28.6666666667 759 42 771 c 0
 67.6440422584 794.079638033 136.033183234 804.828959127 192.88656565 804.828959127 c 0x9c
 224.714026672 804.828959127 252.926244371 801.460180984 268 795 c 0
 292.762099923 784.387671462 300.83953066 761.261841034 300.83953066 746.525802093 c 0
 300.83953066 738.726633832 298.576927956 733.277564943 295.327768822 733.277564943 c 0xcc
 294.303264295 733.277564943 293.18067361 733.81932639 292 735 c 0
 282.202041029 744.797958971 244.404082058 754.595917942 211.265986324 754.595917942 c 0x9c
 203.81836926 754.595917942 196.606123087 754.101020514 190 753 c 0
 154 747 82 753 76 729 c 0
 70 705 64 555 64 513 c 0
 64 471 82 105 112 87 c 0
 126.33809621 78.3971422738 134.965609006 75.7332912991 144.760365518 75.7332912991 c 0
 155.459452194 75.7332912991 167.551271235 78.9117461614 190 81 c 0
 250 87 262 105 298 117 c 0
 307 120 316 121.125 324.4375 121.125 c 0
 349.75 121.125 370 111 370 111 c 1
EndSplineSet
Validated: 1
EndChar

StartChar: C
Encoding: 67 67 35
Width: 538
VWidth: 0
Flags: W
HStem: 123.778 14.2222<42 356.074> 539.999 20G<405.197 413.966>
VStem: 425.248 63.4184<183.945 306.14>
LayerCount: 2
Fore
SplineSet
430 558 m 0
 472.666666667 552.666666667 488.666666667 382 488.666666667 259.333333333 c 0
 488.666666667 198 484.666666667 148.666666667 478 138 c 0
 471.333333333 127.333333333 420.666666667 123.777777778 356.074074074 123.777777778 c 0
 226.888888889 123.777777778 42 138 42 138 c 1
 42 138 346.9921875 149.918945312 414 186 c 0
 421.967578896 190.29023479 425.248276262 199.907609304 425.248276262 213.295522657 c 0
 425.248276262 275.764853726 353.819354397 420.32817095 353.819354397 488.846411526 c 0
 353.819354397 501.480022481 356.247734622 511.528317074 362 518 c 0
 392.759037228 552.605972251 398.778095281 559.999454 411.61637856 559.999454 c 0
 416.315088694 559.999454 421.927235481 559.009095565 430 558 c 0
EndSplineSet
Validated: 1
EndChar

StartChar: B
Encoding: 66 66 36
Width: 550
VWidth: 0
Flags: W
HStem: 120.396 59.5759<299.482 430.182> 555.46 98.3593<59.3868 245.521>
VStem: 436.8 75.8136<239.168 527.996>
LayerCount: 2
Fore
SplineSet
52 646 m 0
 85.9409986123 651.550100402 119.973132179 653.819342458 153.405778039 653.819342458 c 0
 276.59170291 653.819342458 391.638816807 623.011484399 464 612 c 0
 499.925773022 606.53303454 512.613606258 539.122601972 512.613606258 456.253730017 c 0
 512.613606258 326.909041104 481.703406699 159.904380041 460 132 c 0
 453.664804469 123.854748603 439.730407915 120.396429575 420.63344573 120.396429575 c 0
 313.124621579 120.396429575 42 230 42 230 c 1
 42 230 246.16691358 179.972345679 345.441009602 179.972345679 c 0
 366.905679012 179.972345679 383.466666667 182.311111111 392 188 c 0
 430.4 213.6 436.8 358.24 436.8 443.744 c 0
 436.8 465.12 436.4 482.8 436 494 c 0
 434.482493646 536.490177912 351.21468082 577.828943057 260.45579961 577.828943057 c 0
 231.598863765 577.828943057 201.984631468 573.64987292 174 564 c 0
 156.659511374 558.020521163 140.503379535 555.460034561 125.755417236 555.460034561 c 0
 67.0788990296 555.460034561 30.6928689571 595.991017958 30.6928689571 622.985010448 c 0
 30.6928689571 634.593251624 37.4216016186 643.698147624 52 646 c 0
EndSplineSet
Validated: 1
EndChar

StartChar: A
Encoding: 65 65 37
Width: 544
VWidth: 0
Flags: W
HStem: 573.372 65.4084<245.403 414.372>
VStem: 476.89 28.8163<183.146 494.484>
LayerCount: 2
Fore
SplineSet
21 578 m 0
 31.3108572717 608.932571815 204.346884458 638.780309164 336.370852805 638.780309164 c 0
 383.607978676 638.780309164 425.594939733 634.959346626 453 626 c 0
 493.358208955 612.805970149 505.706616173 537.86990421 505.706616173 451.097887706 c 0
 505.706616173 314.265092448 475 148 475 148 c 1
 475 148 476.890359168 176.355387524 476.890359168 218.272047341 c 0
 476.890359168 272.763705104 473.695652174 350.173913043 459 418 c 0
 435.363636364 527.090909091 429.909090909 573.371900826 352.478587528 573.371900826 c 0
 344.73553719 573.371900826 336.272727273 572.909090909 327 572 c 0
 236.8125 563.158203125 193 518 133 512 c 0
 130.331389101 511.73313891 127.562373826 511.603990088 124.715450221 511.603990088 c 0
 81.3461158588 511.603990088 19.8968084982 541.575204111 19.8968084982 571.243659825 c 0
 19.8968084982 573.501978008 20.2528473337 575.758542001 21 578 c 0
EndSplineSet
Validated: 1
EndChar

StartChar: F
Encoding: 70 70 38
Width: 497
VWidth: 0
Flags: W
HStem: 144.466 61.1278<171.989 391.109> 564.983 20G<87.9939 104.704>
VStem: 30.7921 76.3327<259.821 447.929> 453 7.1405<398.245 514.35>
LayerCount: 2
Fore
SplineSet
65 568 m 0
 71.502293741 580.003978374 82.2943967737 584.982567496 93.6934406844 584.982567496 c 0
 115.714204473 584.982567496 140 566.403060351 140 544 c 0
 140 461.175107759 107.124851367 377.090108502 107.124851367 312.014098953 c 0
 107.124851367 298.456596964 108.551724138 285.724137931 112 274 c 4
 124.107872235 232.833234402 214.280548023 205.593522959 293.323223534 205.593522959 c 0
 344.84465372 205.593522959 391.637318916 217.166765598 409 244 c 0
 453 312 453 516 453 516 c 17
 453 516 460.140495868 451.73553719 460.140495868 377.73403456 c 0
 460.140495868 316.066115702 455.181818182 247.636363636 437 204 c 0
 419.482873337 161.958896009 356.897193091 144.46577014 287.960660316 144.46577014 c 0
 199.482032257 144.46577014 100.541519838 173.282540659 73 216 c 0
 46.2216836129 257.533715213 30.7921207971 330.128017302 30.7921207971 403.098152967 c 0
 30.7921207971 463.651596452 41.417415972 524.463851073 65 568 c 0
EndSplineSet
Validated: 1
EndChar

StartChar: G
Encoding: 71 71 39
Width: 491
VWidth: 0
Flags: W
HStem: 598.132 20G<363.188 394.843>
VStem: 42.6469 61.9248<336.23 474.25>
LayerCount: 2
Fore
SplineSet
442.421875 561.283203125 m 0
 410.33203125 497.171875 204.012695312 562.259765625 113.646484375 463.741210938 c 0
 107.261730538 456.780578548 104.571633105 443.322030157 104.571633105 425.582603241 c 0
 104.571633105 330.57417041 181.735351562 112.771484375 181.735351562 112.771484375 c 1
 181.735351562 112.771484375 42.6468587505 311.893302868 42.6468587505 442.396568624 c 0
 42.6468587505 454.227134124 43.7898935441 465.493789616 46.283203125 475.997070312 c 0
 76.279296875 602.362304688 238.96484375 608.155273438 331.662109375 616.348632812 c 0
 345.181769343 617.543600809 357.570928024 618.1319082 368.805100326 618.1319082 c 0
 420.881820783 618.1319082 448.139674097 605.490094175 448.139674097 582.034649525 c 0
 448.139674097 575.856585472 446.248597489 568.928300787 442.421875 561.283203125 c 0
EndSplineSet
Validated: 1
EndChar

StartChar: H
Encoding: 72 72 40
Width: 523
VWidth: 0
Flags: W
HStem: 171.444 54.9506<113.093 228.878>
VStem: 34.9299 55.5673<277.656 542.494>
LayerCount: 2
Fore
SplineSet
438 622 m 0
 410 566 144.300937782 595.090723695 114 546 c 0
 98.4896608343 520.871610249 90.4971353081 456.039608992 90.4971353081 392.3134655 c 0
 90.4971353081 324.768286726 99.4763316626 258.465482967 118 242 c 4
 130.754640152 230.662542088 156.749675175 226.394771735 188.661676516 226.394771735 c 0
 285.875893134 226.394771735 438 266 438 266 c 1
 438 266 203.13548899 171.444157905 119.620469893 171.444157905 c 0
 107.49732196 171.444157905 98.5633802817 173.436619718 94 178 c 0
 66.7558103038 205.244189696 34.9298559644 349.323377795 34.9298559644 466.340389269 c 0
 34.9298559644 503.947628324 38.2170575077 538.759701277 46 566 c 0
 68.8931428223 646.125999878 230.999282532 683.259750717 337.523353999 683.259750717 c 0
 379.898466599 683.259750717 413.478071381 677.383571472 426 666 c 0
 445.709367087 648.082393557 451.819036516 640.687664722 451.819036516 636.505786921 c 0
 451.819036516 631.351869086 442.538992889 631.077985778 438 622 c 0
EndSplineSet
Validated: 1
EndChar

StartChar: J
Encoding: 74 74 41
Width: 774
VWidth: 0
Flags: W
HStem: 416.412 83.5884<69.6601 344.691> 456.81 46.9483<236.665 658.573>
VStem: 665.167 51.7009<414.365 454.844>
LayerCount: 2
Fore
SplineSet
35 500 m 5xa0
 35 500 334.634236728 503.758095889 534.933697006 503.758095889 c 0
 628.582394952 503.758095889 700.516822198 502.93658791 709.9609375 500.525390625 c 4
 714.832199567 499.281657311 716.867575366 490.39884305 716.867575366 476.421245836 c 0
 716.867575366 405.342442528 664.234375 202.516601562 664.234375 202.516601562 c 5
 664.234375 202.516601562 665.166670762 250.913106084 665.166670762 305.390219362 c 0
 665.166670762 372.250063309 663.762382537 448.26893986 657.506835938 455.219726562 c 4
 656.520072248 456.316158956 651.461573603 456.809806386 643.031508881 456.809806386 c 0x60
 566.770305584 456.809806386 214.592924763 416.411573383 104.846900194 416.411573383 c 0
 87.1532406597 416.411573383 75.7611186803 417.461647871 72.8427734375 419.900390625 c 4
 49.8212890625 439.13671875 35 500 35 500 c 5xa0
EndSplineSet
Validated: 1
EndChar

StartChar: K
Encoding: 75 75 42
Width: 884
VWidth: 0
Flags: W
HStem: 399.089 84.4809<107.82 415.019> 422.786 60.7846<237.819 740.842>
VStem: 779.971 55.7118<239.417 417.713>
LayerCount: 2
Fore
SplineSet
37 480 m 5xa0
 37 480 240.504132231 483.570247934 438.490608565 483.570247934 c 0
 603.479338843 483.570247934 764.636363636 481.090909091 801 472 c 0
 827.008527583 465.497868104 835.683190298 433.629104696 835.683190298 392.749980505 c 0
 835.683190298 310.845756946 800.860523484 192.771275052 800.860523484 170.078831678 c 0
 800.860523484 157.843315858 764.341698145 156.1875 707.8359375 156.1875 c 0
 619.75 156.1875 501 164 501 164 c 9
 501 164 765 188 769 200 c 0
 771.717140347 208.151421042 779.971419445 293.822784585 779.971419445 355.459104661 c 0
 779.971419445 384.559827503 778.131438611 408.302842084 773 416 c 0
 769.744562647 420.88315603 745.790155835 422.785660458 708.852270278 422.785660458 c 0x60
 578.49067853 422.785660458 286.41557147 399.089339542 171.780542222 399.089339542 c 0
 159.25416671 399.089339542 148.846483459 399.372281323 141 400 c 0
 41 408 37 480 37 480 c 5xa0
EndSplineSet
Validated: 1
EndChar

StartChar: M
Encoding: 77 77 43
Width: 738
VWidth: 0
Flags: W
HStem: 441 52<172.227 604.218>
VStem: 25.1818 72.5937<232.172 421.443> 660.224 42.5926<369.724 446.737>
LayerCount: 2
Fore
SplineSet
103 224 m 1
 103 224 99.1632653061 223.673469388 93.1924198251 223.673469388 c 0
 78.2653061224 223.673469388 50 225.714285714 35 240 c 0
 28.4238535674 246.262996602 25.1818428825 267.431541253 25.1818428825 294.661627941 c 0
 25.1818428825 354.386998572 40.7785925254 443.273393884 71 468 c 0
 93 486 248 493 398.5 493 c 0
 549 493 695 486 699 476 c 0
 701.664060017 469.339981219 702.817051077 460.134426628 702.817051077 449.187951484 c 0
 702.817051077 378.693859686 655 236 655 236 c 1
 655 236 660.224489796 297.387755102 660.224489796 351.498542274 c 0
 660.224489796 392.081632653 657.285714286 428.571428571 647 432 c 4
 635 436 507 441 379 441 c 0
 251 441 123 436 111 420 c 0
 100.714285714 406.285714286 97.7755102041 368.326530612 97.7755102041 329.422740525 c 0
 97.7755102041 277.551020408 103 224 103 224 c 1
EndSplineSet
Validated: 1
EndChar

StartChar: N
Encoding: 78 78 44
Width: 706
VWidth: 0
Flags: W
HStem: 209.423 49.9274<98.0044 249.406> 500.324 36.3277<163.563 477.209>
VStem: 21.282 50.6439<284.885 421.684> 264.939 68.9573<360.171 453.128> 282.049 56.8732<290.307 438.362>
LayerCount: 2
Fore
SplineSet
334 452 m 1xf0
 333.929182623 452 333.896419213 451.815996645 333.896419213 451.458172208 c 0xf0
 333.896419213 447.026296096 338.922440461 415.929659935 338.922440461 377.514546019 c 1
 338.922440461 322.327063707 328.549515577 252.035383406 278 224 c 0
 261.790040549 215.009661036 232.10349254 209.423099848 198.710009141 209.423099848 c 0
 134.089716987 209.423099848 55.5881484166 230.342968122 34 288 c 0
 27.1490379035 306.297266977 21.2819845192 333.127004602 21.2819845192 362.458892069 c 0
 21.2819845192 438.707639534 60.9285387198 531.864639383 226 536 c 0
 243.801686456 536.44596681 261.384284153 536.651537453 278.673454957 536.651537453 c 0
 482.785006301 536.651537453 646 508 646 508 c 9
 646 508 494 500 442 496 c 0
 439.0697567 495.774596669 435.567938458 495.676209992 431.558962722 495.676209992 c 0
 404.005339252 495.676209992 352.494660748 500.323790008 297.941037278 500.323790008 c 0
 219.575211426 500.323790008 134.9302433 490.733469946 106 444 c 0
 81.2780130361 404.064482597 71.9258528037 370.457717377 71.9258528037 343.609537662 c 0
 71.9258528037 313.985503101 83.3118391344 292.58985217 98 280 c 0
 111.060939671 268.804908853 141.528832924 259.350513065 174.382263129 259.350513065 c 0
 211.959909777 259.350513065 252.658485245 271.719424916 274 308 c 0
 279.880784303 317.997216934 282.049219206 328.682600498 282.049219206 339.593459004 c 0xe8
 282.049219206 370.242159354 264.939114486 402.669976913 264.939114486 426.621546789 c 0
 264.939114486 429.917068546 265.263030983 433.052123931 266 436 c 0
 270 452 287 456 303 456 c 0
 319 456 334 452 334 452 c 1xf0
EndSplineSet
Validated: 1
EndChar

StartChar: O
Encoding: 79 79 45
Width: 660
VWidth: 0
Flags: W
HStem: 228.651 50.257<109.644 564.49>
VStem: 21.3682 70.5698<306.715 515.246> 583.543 27.6408<290.364 449.478>
LayerCount: 2
Fore
SplineSet
92 518 m 1
 92 518 91.9379911947 513.011196384 91.9379911947 504.484047089 c 0
 91.9379911947 454.408765659 94.0764083418 282.311151548 123.46875 281.931640625 c 0
 173.852456064 281.281091342 313.639157115 278.908060591 423.427642958 278.908060591 c 0
 486.192476468 278.908060591 539.153055218 279.683633333 560 282 c 4
 579.058823529 284.117647059 583.543252595 346.775086505 583.543252595 405.277834317 c 0
 583.543252595 457.280276817 580 506 580 506 c 1
 580 506 611.184028969 399.925783419 611.184028969 315.2629893 c 0
 611.184028969 294.29319843 609.270939728 274.636963353 604.497070312 258.231445312 c 0
 597.692771017 234.848305742 475.44552681 228.651056405 350.382341339 228.651056405 c 0
 239.75402553 228.651056405 126.922290058 233.500284343 89.84375 235.592773438 c 0
 44.3367647119 238.160746611 21.3682025626 384.473854597 21.3682025626 487.905689833 c 0
 21.3682025626 514.681754438 50.9064240825 519.411961924 71.7790830998 519.411961924 c 0
 83.182872164 519.411961924 92 518 92 518 c 1
EndSplineSet
Validated: 1
EndChar

StartChar: Q
Encoding: 81 81 46
Width: 416
VWidth: 0
Flags: W
HStem: -8.67769 99.5782<113.392 349.146> -6 117.578<204.609 369.818> 779.598 20G<236.034 299.053>
VStem: 19.5556 45.4444<404.233 735.201> 28 58.0323<117.902 444.531>
LayerCount: 2
Fore
SplineSet
374 21 m 1x68
 374 21 353 -6 347 -6 c 0x68
 343.727272727 -6 270.834710744 -8.67768595041 201.350112697 -8.67768595041 c 0
 143.446280992 -8.67768595041 87.9090909091 -6.81818181818 77 0 c 0
 53 15 28 165 28 225 c 0xa8
 28 265 19.5555555556 478.333333333 19.5555555556 625 c 0xb0
 19.5555555556 698.333333333 21.6666666667 755 28 765 c 0xa8
 42.0914903487 787.249721603 189.296455102 799.598440978 282.772485418 799.598440978 c 0
 315.333129155 799.598440978 341.374582405 798.100111359 353 795 c 0
 356.412184675 794.090084087 357.995986459 793.249163754 357.995986459 792.456312277 c 0
 357.995986459 782.793013258 122.725210217 780.27025226 95 747 c 0
 65 711 65 663 65 603 c 0xb0
 65 543 71 279 83 255 c 0
 85.2629658164 250.474068367 86.032302466 244.241131973 86.032302466 236.86452944 c 0
 86.032302466 221.193814796 82.5602901266 200.36174076 82.5602901266 179.769215416 c 0
 82.5602901266 158.653114003 86.2111025509 137.788897449 101 123 c 0
 126.834474939 97.1655250606 156.273842369 90.9004664985 190.426798774 90.9004664985 c 0
 203.865536548 90.9004664985 218.034088105 91.8704972155 233 93 c 0
 305 99 272 93 347 111 c 0
 348.608695652 111.391304348 350.128544423 111.578449905 351.564231117 111.578449905 c 0
 371.563094883 111.578449905 375.231148046 75.2647235939 375.231148046 48.6230743063 c 0
 375.231148046 33.188365651 374 21 374 21 c 1x68
EndSplineSet
Validated: 1
EndChar

StartChar: R
Encoding: 82 82 47
Width: 416
VWidth: 0
Flags: W
HStem: 4.61583 108.384<121.679 313> 768.122 20G<33.9597 35.9626>
VStem: 13.1308 20.4634<411.423 507.735>
LayerCount: 2
Fore
SplineSet
313 113 m 1
 313 113 373 101 373 83 c 0
 373 65.7780241469 351.029892423 4.61583314054 322.855038194 4.61583314054 c 0
 321.582204164 4.61583314054 320.296706912 4.7406586177 319 5 c 0
 289 11 61 11 31 23 c 0
 18.07398993 28.170404028 13.1307739291 164.964087008 13.1307739291 321.3965938 c 0
 13.1307739291 528.028573137 21.755606042 768.92601007 32 786 c 0
 32.8608117807 787.434686301 33.6232813773 788.121514598 34.2961585688 788.121514598 c 0
 37.6291100866 788.121514598 38.7639103444 771.270170082 38.7639103444 744.98435429 c 0
 38.7639103444 688.880301198 33.5942146556 589.796573802 33.5942146556 519.85042696 c 0
 33.5942146556 490.839134578 34.4835622624 466.840407557 37 453 c 0
 49 387 62 224 79 171 c 0
 81.0953133832 164.190231505 81.8700953626 157.449062043 81.8700953626 150.929211619 c 0
 81.8700953626 132.417189839 75.6239519541 115.689399604 75.6239519541 104.241624877 c 0
 75.6239519541 94.54847043 80.102116707 88.6408165393 96.6420235685 88.6408165393 c 0
 106.222862947 88.6408165393 119.850868512 90.6230556599 139 95 c 0
 198 108 229 113 247 113 c 0
 265 113 313 113 313 113 c 1
EndSplineSet
Validated: 1
EndChar

StartChar: S
Encoding: 83 83 48
Width: 256
VWidth: 0
Flags: W
HStem: 834 43.5868<-109.38 150.254>
VStem: 88 114<73.2206 170.573> 104.413 97.5868<224.492 434.987> 156.499 57.4196<570.813 819.833>
LayerCount: 2
Fore
SplineSet
124 177 m 1xc0
 124 177 128.875 177.375 136.1875 177.375 c 0
 158.125 177.375 202 174 202 147 c 0
 202 111 166 45 154 9 c 0
 151.397142274 1.19142682144 147.382853643 -2.10056746194 142.630655644 -2.10056746194 c 0
 125.473713002 -2.10056746194 98.6985711369 40.8085731786 94 69 c 0
 91 87 88 108 88 126.75 c 0
 88 145.5 91 162 100 171 c 0
 118 189 124 177 124 177 c 1xc0
154 210 m 1
 154 210 104.41322314 210 104.41322314 297.903831705 c 0xa0
 104.41322314 306.694214876 104.909090909 316.363636364 106 327 c 0
 111.661522795 383.615227949 156.498739359 715.350668962 156.498739359 792.924987934 c 0
 156.498739359 797.562810588 156.338477205 801.292182359 156 804 c 0
 153 828 68 834 -16.25 834 c 0
 -100.5 834 -184 828 -184 828 c 1
 -184 828 57.3223140496 877.58677686 128.246431255 877.58677686 c 0
 135.338842975 877.58677686 140.727272727 877.090909091 144 876 c 0
 180 864 186 858 204 816 c 0
 211.714285714 798 213.918367347 776.693877551 213.918367347 755.860058309 c 0x90
 213.918367347 728.081632653 210 701.142857143 210 684 c 0
 210 654 208 435 208 435 c 1
 208 435 202 417 202 369 c 0
 202 321 202 303 202 285 c 0xa0
 202 210 154 210 154 210 c 1
EndSplineSet
Validated: 1
EndChar

StartChar: T
Encoding: 84 84 49
Width: 478
VWidth: 0
Flags: W
HStem: 0 93.6942<69.0531 294.163> 0 79.2058<198.944 368.785> 721 84<83.3591 152.841> 727 70<223.33 381.658> 769 36<20.3952 64.5651>
VStem: 391.217 44.783<520.398 636.699 638.093 714.764>
LayerCount: 2
Fore
SplineSet
172 805 m 1x0c
 172 805 166 721 142 721 c 0x24
 118 721 60 757 24 769 c 0
 16.3955830577 771.534805647 13.2531381086 774.605047934 13.2531381086 777.871419906 c 0
 13.2531381086 790.068349311 57.0696112949 805 76 805 c 0
 100 805 172 805 172 805 c 1x0c
69 81 m 1
 69 81 141.991735537 93.694214876 197.961682945 93.694214876 c 0x84
 218.950413223 93.694214876 237.545454545 91.9090909091 249 87 c 0
 262.313466521 81.2942286341 278.641361456 79.2057713659 294.925971147 79.2057713659 c 0
 330.014428415 79.2057713659 364.901923789 88.9019237886 369 93 c 0
 373.864366882 97.864366882 391.217045933 412.964699224 391.217045933 548.056141272 c 0
 391.217045933 579.594534505 390.271266236 601.32183441 388 607 c 0
 384.683281573 615.291796068 383.658359214 625.875388203 383.658359214 637.230527955 c 0
 383.658359214 655.603530023 386.341640786 675.996469977 386.341640786 691.969472045 c 0
 386.341640786 701.841330224 385.316718427 710.024922359 382 715 c 0
 374.8 725.8 361.12 727.96 342.256 727.96 c 0
 329.68 727.96 314.8 727 298 727 c 0
 237.816377698 727 210.49209091 751.779171043 210.49209091 774.452990747 c 0
 210.49209091 782.672180546 214.082611949 790.614718722 221 797 c 1
 221 797 389 797 431 797 c 0x54
 446.206896552 797 451.057372176 792.542806183 451.057372176 784.862509738 c 0
 451.057372176 771.330558859 436 747.793103448 436 721 c 0
 436 679 432 0 405 0 c 0x64
 378 0 111 0 99 0 c 0x84
 87 0 45 0 26 33 c 0
 23.4755244755 37.3846153846 22.3809966258 41.4514646193 22.3809966258 45.2075844836 c 0
 22.3809966258 69.7212088611 69 81 69 81 c 1
EndSplineSet
Validated: 1
EndChar

StartChar: V
Encoding: 86 86 50
Width: 470
VWidth: 0
Flags: W
HStem: 740.315 66.6851<127.461 301.066>
VStem: 25 52.6857<495.637 690.515> 188 3.22025<304.42 307.464> 323 86.6667<158.961 478.582> 359.587 56.4133<431.339 696.73>
LayerCount: 2
Fore
SplineSet
77 459 m 1xe0
 77 459 98 456 119 435 c 0
 155 399 170 410 176 375 c 0
 184.649110641 327.429891476 191.220245868 302.198018644 191.220245868 300.427671458 c 0
 191.220245868 300.360938722 191.210908997 300.327542273 191.191994601 300.327542273 c 0
 191.016507035 300.327542273 190.016575724 303.202344793 188 309 c 0
 183 323 125 339 107 357 c 0
 89 375 77 375 65 393 c 0
 62.6 396.6 61.64 401.4 61.64 406.776 c 0
 61.64 428.28 77 459 77 459 c 1xe0
281 84 m 1
 281 84 323 237 323 255 c 0xf0
 323 271.8 359.586666667 607.426666667 359.586666667 666.736888889 c 0
 359.586666667 670.973333333 359.4 673.8 359 675 c 0
 353 693 287 735 239 735 c 0
 216.411764706 735 197.14532872 740.314878893 178.074292693 740.314878893 c 0
 156.619377163 740.314878893 135.411764706 733.588235294 110 705 c 0
 84.6083900023 676.434438753 77.6857186531 631.078933279 77.6857186531 592.026018179 c 0
 77.6857186531 557.253763272 83.1739512497 527.478146251 86 519 c 0
 86.5462567626 517.361229712 86.8024058648 515.622993941 86.8024058648 513.821515148 c 0
 86.8024058648 497.58822315 66.003153161 476.219611234 49.252083848 476.219611234 c 0
 47.4437951284 476.219611234 45.6826812724 476.468626967 44 477 c 0
 25 483 25 609 25 621 c 0
 25 633 44 717 50 729 c 0
 56 741 146 807 188 807 c 0
 230 807 311 790 335 771 c 0
 389 729 416 747 416 639 c 0xe8
 416 531 407 291 407 237 c 0
 407 201 409.666666667 173 409.666666667 139.666666667 c 0
 409.666666667 123 409 105 407 84 c 0
 401.643161516 26.860389499 385.658279124 9.04454145363 366.003795723 9.04454145363 c 0
 352.636870859 9.04454145363 337.572646062 17.2849026252 323 27 c 0xf0
 287 51 281 84 281 84 c 1
EndSplineSet
Validated: 1
EndChar

StartChar: W
Encoding: 87 87 51
Width: 442
VWidth: 0
Flags: W
HStem: -0.5625 63.2453<142.512 288.995> 327.798 96.4096<173.809 278.566> 718.875 78.6103<115.415 199.968> 757 20G<67 70.5>
VStem: 18.7365 51.9636<121.044 360.206> 33.6667 45.2669<160.335 635.239> 320.09 84.8108<99.4505 279.944>
LayerCount: 2
Fore
SplineSet
109 729 m 1xe2
 109 729 99.9112426036 751.721893491 99.9112426036 770.598543468 c 0
 99.9112426036 782.396449704 103.461538462 792.692307692 115 795 c 0
 123.786796564 796.757359313 136.176623509 797.485281374 149.908116908 797.485281374 c 0
 183.058874503 797.485281374 224.029437252 793.242640687 241 789 c 0
 244.572180472 788.106954882 246.150536987 786.283458584 246.150536987 783.786705237 c 0
 246.150536987 769.508807695 194.53477441 733.213909764 169 723 c 0
 161.5 720 154 718.875 146.96875 718.875 c 0
 125.875 718.875 109 729 109 729 c 1xe2
151 363 m 1
 151 363 169 417 187 423 c 0
 189.513167019 423.83772234 193.780780836 424.207592201 199.29659792 424.207592201 c 0
 233.286594318 424.207592201 314.67544468 410.16227766 325 405 c 0
 337 399 367 351 394 279 c 0
 401.576880247 258.794986009 404.90123351 235.754954029 404.90123351 211.868847745 c 0
 404.90123351 150.637485009 383.055617421 83.8462395065 355 45 c 0
 325.75 4.5 306.625 -0.5625 273.578125 -0.5625 c 0
 262.5625 -0.5625 250 0 235 0 c 0
 175 0 85 33 43 75 c 0
 24.3874945699 93.6125054301 18.7364821406 122.82986877 18.7364821406 155.341609448 c 0xda
 18.7364821406 196.194151381 27.6589293472 242.248222819 31 279 c 0
 33 301 33.6666666667 333.666666667 33.6666666667 368.555555556 c 0
 33.6666666667 438.333333333 31 517 31 537 c 0
 31 567 67 777 67 777 c 0
 74 761 70 704 78 428 c 0
 78.6562803401 402.93009101 78.9335412615 379.927560666 78.9335412615 358.836379274 c 0xd6
 78.9335412615 243.902284246 70.7000389854 185.727345384 70.7000389854 159.062155706 c 0
 70.7000389854 153.340466474 71.0791302586 149.069565805 72 146 c 0
 74.8930454315 138.285212183 128.934330061 62.68276143 229.639787835 62.68276143 c 0
 233.362822622 62.68276143 237.149635534 62.786090863 241 63 c 0
 304.095885962 66.5053269979 320.090388702 129.399354579 320.090388702 184.682647862 c 0
 320.090388702 224.026691743 311.989346004 259.515980994 307 267 c 0
 295 285 277 321 241 327 c 0
 237.696938457 327.550510257 234.696938457 327.797958971 231.944387171 327.797958971 c 0
 207.449489743 327.797958971 202.550510257 308.202041029 178.055612829 308.202041029 c 0
 175.303061543 308.202041029 172.303061543 308.449489743 169 309 c 0
 151 312 146.5 325.5 146.5 338.25 c 0
 146.5 351 151 363 151 363 c 1
EndSplineSet
Validated: 1
EndChar

StartChar: X
Encoding: 88 88 52
Width: 468
VWidth: 0
Flags: W
HStem: -10.4255 61.4255<98.7431 321.466> 732.932 20G<51.3259 51.6513>
VStem: 20 30.4186<484.658 685.945> 291 96<355.992 418.787> 327.971 101.43<72.398 250.222>
LayerCount: 2
Fore
SplineSet
321 339 m 1xf0
 321 339 291 351 291 363 c 0
 291 375 291 393 279 441 c 0
 273 465 271.5 481.5 271.5 492 c 0
 271.5 502.5 273 507 273 507 c 1
 273 507 387 409 387 387 c 0
 387 351 321 339 321 339 c 1xf0
393 291 m 1
 393 291 417 273 423 261 c 0
 425.859762657 255.280474687 429.401045518 235.930545286 429.401045518 206.848183859 c 0
 429.401045518 174.913534606 425.131068045 131.243797494 411 81 c 0
 384 -15 381 27 231 0 c 0
 191.791918129 -7.0574547368 162.832327485 -10.425452632 140.906638602 -10.425452632 c 0
 78.9503017546 -10.425452632 73.1583836258 16.4673943859 51 63 c 0
 21 126 20 465 20 501 c 0
 20 533.954139606 51.0039249497 752.93182891 51.6479507578 752.93182891 c 0
 51.6547099396 752.93182891 51.658125 752.907708672 51.658125 752.859 c 0
 51.658125 752.47875 51.45 750.6 51 747 c 0
 50.6055512755 743.844410204 50.4185556126 738.095657136 50.4185556126 730.108335711 c 0
 50.4185556126 616.599691833 88.1833461736 51 105 51 c 0
 123 51 309 63 321 69 c 0
 325.43277675 71.2163883751 326.590635214 77.526424608 326.590635214 86.7203602288 c 0
 326.590635214 96.777020947 325.205283153 110.284203543 325.205283153 125.658648518 c 0
 325.205283153 134.278487478 325.640754482 143.485281374 327 153 c 0
 327.676209992 157.733469946 327.971370023 162.314519907 327.971370023 166.751738877 c 0xe8
 327.971370023 197.248670961 314.028629977 220.951329039 314.028629977 240.648261123 c 0
 314.028629977 243.51411007 314.323790008 246.295160031 315 249 c 0
 321 273 393 291 393 291 c 1
EndSplineSet
Validated: 1
EndChar

StartChar: Y
Encoding: 89 89 53
Width: 434
VWidth: 0
Flags: W
HStem: 608.143 21G<362.245 363.865> 759.694 59.0962<78.0302 300.853>
VStem: 40 56.4132<592.305 752.919> 362 24<630.649 633.674>
LayerCount: 2
Fore
SplineSet
326 723 m 1
 326 723 345.834710744 747.79338843 362.964688204 747.79338843 c 0
 364.67768595 747.79338843 366.363636364 747.545454545 368 747 c 0
 386 741 386 699 386 675 c 0
 386 652.747289404 365.367369631 608.142562576 362.363104929 608.142562576 c 0
 362.127209178 608.142562576 362 608.417570199 362 609 c 0
 362 616 344 645 326 669 c 0
 320 677 318 685.666666667 318 693.666666667 c 0
 318 709.666666667 326 723 326 723 c 1
56 33 m 1
 56 33 56 51 40 81 c 0
 34.6666666667 91 32.8888888889 171.666666667 32.8888888889 275.888888889 c 0
 32.8888888889 484.333333333 40 787 40 807 c 0
 40 815.619142055 62.1217949066 818.790379394 93.9385752881 818.790379394 c 0
 172.86407127 818.790379394 311.447656822 799.276171589 320 795 c 0
 323.100111359 793.449944321 324.598440978 789.497216032 324.598440978 784.486692696 c 0
 324.598440978 770.102338533 312.249721603 747 290 747 c 0
 268.181818182 747 182.892561983 759.694214876 133.377911345 759.694214876 c 0
 114.809917355 759.694214876 101.272727273 757.909090909 98 753 c 0
 96.9090909091 751.363636364 96.4132231405 744.47107438 96.4132231405 733.273478588 c 0
 96.4132231405 621.297520661 146 78.8181818182 146 57 c 0
 146 33 116 0 86 0 c 0
 56 0 56 33 56 33 c 1
EndSplineSet
Validated: 1
EndChar

StartChar: Z
Encoding: 90 90 54
Width: 448
VWidth: 0
Flags: W
HStem: 0 75.7333<105.191 254.398> 733.278 61.7224<212.823 293.217> 746.388 20G<376.929 392.796> 754.596 50.233<78.5029 285.303>
VStem: 24.2222 39.7778<334.91 727.549> 335.224 58.7755<600.281 693.918>
LayerCount: 2
Fore
SplineSet
340 741 m 1xac
 340 741 365.388429752 766.388429752 388.468820436 766.388429752 c 0
 397.123966942 766.388429752 405.454545455 762.818181818 412 753 c 0
 417.333333333 745 419.407407407 736.111111111 419.407407407 726.794238683 c 0
 419.407407407 694.185185185 394 656.333333333 394 633 c 0
 394 603 322 567 322 567 c 17
 322 567 335.224489796 637.530612245 335.224489796 669.017492711 c 0
 335.224489796 674.265306122 334.857142857 678.428571429 334 681 c 0
 332.8 684.6 332.32 689.16 332.32 694.152 c 0
 332.32 714.12 340 741 340 741 c 1xac
370 111 m 1
 370 111 390.833333333 52.6666666667 390.833333333 29.75 c 0
 390.833333333 25.1666666667 390 22 388 21 c 0
 376 15 268 0 262 0 c 0
 256 0 42 0 42 0 c 17
 42 0 24.2222222222 326.666666667 24.2222222222 555.111111111 c 0
 24.2222222222 669.333333333 28.6666666667 759 42 771 c 0
 67.6440422584 794.079638033 136.033183234 804.828959127 192.88656565 804.828959127 c 0x9c
 224.714026672 804.828959127 252.926244371 801.460180984 268 795 c 0
 292.762099923 784.387671462 300.83953066 761.261841034 300.83953066 746.525802093 c 0
 300.83953066 738.726633832 298.576927956 733.277564943 295.327768822 733.277564943 c 0xcc
 294.303264295 733.277564943 293.18067361 733.81932639 292 735 c 0
 282.202041029 744.797958971 244.404082058 754.595917942 211.265986324 754.595917942 c 0x9c
 203.81836926 754.595917942 196.606123087 754.101020514 190 753 c 0
 154 747 82 753 76 729 c 0
 70 705 64 555 64 513 c 0
 64 471 82 105 112 87 c 0
 126.33809621 78.3971422738 134.965609006 75.7332912991 144.760365518 75.7332912991 c 0
 155.459452194 75.7332912991 167.551271235 78.9117461614 190 81 c 0
 250 87 262 105 298 117 c 0
 307 120 316 121.125 324.4375 121.125 c 0
 349.75 121.125 370 111 370 111 c 1
EndSplineSet
Validated: 1
EndChar

StartChar: h_e
Encoding: 257 -1 55
Width: 701
VWidth: 0
Flags: W
HStem: 87.0596 57.3994<189.781 430.783> 178.206 56.3701<311.016 463.106> 585.716 80.0176<254.033 627.385> 602.748 67.7363<153.414 440.906>
VStem: 65.3555 73.8174<248.015 575.385> 190.354 74.6455<301.856 439.546> 526.239 76.3857<284.045 407.441>
LayerCount: 2
Fore
SplineSet
627.403320312 667.638671875 m 1xee
 627.403320312 667.638671875 650.654296875 648.724609375 650.654296875 629.099609375 c 0
 650.654296875 609.883789062 628.362304688 589.985351562 540.123046875 586.495117188 c 0
 526.516601562 585.956054688 512.887695312 585.715820312 499.306640625 585.715820312 c 0xee
 385.037109375 585.715820312 274.21484375 602.748046875 209.000976562 602.748046875 c 0
 180.375976562 602.748046875 160.5390625 599.465820312 153.053710938 590.0234375 c 0
 143.298828125 577.71484375 139.172851562 532.104492188 139.172851562 475.030273438 c 0
 139.172851562 376.681640625 151.423828125 244.290039062 168.233398438 189.594726562 c 0
 178.993164062 154.580078125 247.359375 144.458984375 329.938476562 144.458984375 c 0
 443.048828125 144.458984375 582.822265625 163.4453125 637.75390625 163.4453125 c 0
 641.716796875 163.4453125 645.237304688 163.346679688 648.275390625 163.134765625 c 0
 660.963867188 162.25 666.494140625 161.315429688 666.494140625 160.215820312 c 0
 666.494140625 154.744140625 529.32421875 145.182617188 456.637695312 117.270507812 c 0
 413.344726562 100.646484375 346.244140625 87.0595703125 282.658203125 87.0595703125 c 0
 218.051757812 87.0595703125 157.075195312 101.0859375 128.387695312 140.202148438 c 0
 89.2451171875 193.575195312 65.35546875 329.525390625 65.35546875 438.5 c 0
 65.35546875 488 70.2841796875 531.93359375 80.953125 560.034179688 c 0
 111.666015625 640.936523438 114.758789062 670.484375 276.515625 670.484375 c 0xde
 294.6328125 670.484375 314.741210938 670.11328125 337.1015625 669.40234375 c 0
 425.900390625 666.580078125 490.107421875 665.733398438 535.189453125 665.733398438 c 0
 602.813476562 665.733398438 627.403320312 667.638671875 627.403320312 667.638671875 c 1xee
418.690429688 546.8046875 m 1
 418.690429688 546.8046875 344.69140625 515.052734375 299.153320312 462.131835938 c 0
 265.948242188 423.32421875 265 398.62890625 265 351 c 0
 265 303.373046875 293.4609375 276.913085938 310.538085938 255.745117188 c 0
 327.614257812 234.576171875 395.920898438 234.576171875 424.381835938 234.576171875 c 0
 452.842773438 234.576171875 486.99609375 271.62109375 509.765625 287.497070312 c 0
 522.350585938 296.272460938 526.239257812 313.133789062 526.239257812 332.717773438 c 0
 526.239257812 348.560546875 523.6953125 366.185546875 521.1484375 382.752929688 c 0
 515.533203125 419.302734375 412.940429688 457.5703125 412.940429688 492.471679688 c 0
 412.940429688 492.943359375 412.959960938 493.4140625 412.998046875 493.884765625 c 0
 418.690429688 557.388671875 452.842773438 541.512695312 481.303710938 546.8046875 c 0
 482.0078125 546.935546875 482.739257812 547 483.49609375 547 c 0
 513.383789062 547 584.044921875 447.366210938 595.1484375 421.560546875 c 0
 599.86328125 410.600585938 602.625 394.797851562 602.625 375.907226562 c 0
 602.625 349.193359375 597.100585938 316.3046875 583.763671875 282.205078125 c 0
 560.995117188 223.9921875 464.227539062 192.240234375 361.767578125 179.010742188 c 0
 357.561523438 178.466796875 353.421875 178.206054688 349.349609375 178.206054688 c 0
 254.26171875 178.206054688 196.4609375 321.203125 191.000976562 366.876953125 c 0
 190.561523438 370.559570312 190.354492188 374.15234375 190.354492188 377.66015625 c 0
 190.354492188 419.509765625 219.907226562 449.116210938 236.5390625 472.715820312 c 0
 282.076171875 536.220703125 418.690429688 546.8046875 418.690429688 546.8046875 c 1
EndSplineSet
Validated: 1
LCarets2: 1 192
Ligature2: "'liga' Standard Ligatures in Latin lookup 1-1" h e
EndChar

StartChar: i_n
Encoding: 259 -1 56
Width: 618
VWidth: 0
Flags: W
HStem: 183 44.8438<147.243 341.697> 291.571 75.9568<338.016 437.803> 583 20G<77 77> 622.234 74.3953<279.342 420.511>
VStem: 166.577 74.3096<462.558 570.819> 508.661 66.3547<129.246 553.127>
LayerCount: 2
Fore
SplineSet
77 603 m 1
 77 603 119 573 119 555 c 0
 119 540 90.515625 378.861328125 90.515625 305.6328125 c 0
 90.515625 289.94140625 91.8232421875 278.293945312 95 273 c 0
 109.756835938 248.40625 249.51953125 227.84375 319.245117188 227.84375 c 0
 334.571289062 227.84375 346.512695312 228.837890625 353 231 c 0
 389 243 479 261 479 261 c 1
 479 261 401 225 383 219 c 0
 365 213 287 183 233 183 c 0
 179 183 84 189 59 207 c 0
 40.146484375 220.575195312 22.998046875 391.125 22.998046875 487.030273438 c 0
 22.998046875 518.29296875 24.8203125 541.625 29 549 c 0
 46 579 77 603 77 603 c 1
338 292 m 1
 338 292 189.159179688 340.431640625 166.688476562 515.584960938 c 0
 166.549804688 516.72265625 166.513671875 517.962890625 166.577148438 519.298828125 c 0
 168.163085938 553.3671875 233.727539062 648.875 276.116210938 673.06640625 c 0
 311.027397026 692.990556903 329.790307471 696.629644496 351.289073932 696.629644496 c 0
 356.916755173 696.629644496 362.731903545 696.380285865 369.073242188 696.108398438 c 0
 401.055478007 694.736169349 553.683911587 601.130159548 553.683911587 582.241220866 c 0
 553.683911587 564.773588754 575.015939055 492.071059854 575.015939055 365.962203191 c 0
 575.015939055 348.9217397 574.626442372 330.906142102 573.7421875 311.919921875 c 0
 572.344726562 281.948242188 554.756835938 -95.708984375 551.405273438 -167.643554688 c 0
 551.203125 -171.993164062 550.861328125 -174.032226562 550.399414062 -174.01171875 c 0
 543.399183926 -173.710715522 508.661242328 299.185924749 508.661242328 359.036111662 c 0
 508.661242328 370.848972101 509.402793629 382.820316042 509.402793629 397.44629892 c 0
 509.402793629 439.251038899 507.153095683 491.45388913 503.760742188 519.143554688 c 0
 499.657226562 552.638671875 439.51171875 619.33984375 372.043945312 622.234375 c 0
 366.533203125 622.470703125 360.974609375 622.282226562 355.393554688 621.614257812 c 0
 286.150390625 613.330078125 243.484375 598.637695312 240.866210938 542.393554688 c 0
 240.6875 538.595703125 240.693359375 534.609375 240.88671875 530.421875 c 0
 243.927734375 464.219726562 307.825195312 389.399414062 356.173828125 375.3125 c 0
 373.364257812 370.303710938 387.493164062 368.131835938 398.969726562 367.639648438 c 0
 400.746793039 367.563381614 402.460286801 367.527395365 404.111732906 367.527395365 c 0
 431.789826734 367.527395365 442.0390625 377.635742188 442.0390625 377.635742188 c 1
 446.368145238 377.450610787 458.0926399 350.402614649 458.0926399 326.846866148 c 0
 458.0926399 311.002593841 453.000303413 297.742812422 438.130859375 293.711914062 c 0
 431.418863562 291.999022881 406.410829343 291.570556224 383.068464306 291.570556224 c 0
 359.699498282 291.570556224 338 292 338 292 c 1
EndSplineSet
Validated: 1
LCarets2: 1 152
Ligature2: "'liga' Standard Ligatures in Latin lookup 1-1" i n
EndChar

StartChar: o_n
Encoding: 260 -1 57
Width: 640
VWidth: 0
Flags: W
HStem: 110.664 61.1357<133.853 392.954> 210.766 43.4395<291.245 381.901>
VStem: 58.8037 82.0195<231.114 423.464> 71.623 52.2646<182.708 347.953> 191.95 46.916<311.204 457.327> 432.807 66.8379<313.927 447.717>
LayerCount: 2
Fore
SplineSet
129.578125 423.4921875 m 1xec
 129.578125 423.4921875 140.823242188 385.432617188 140.823242188 348.237304688 c 0xec
 140.823242188 342.182617188 140.69921875 336.00390625 139.958007812 330.072265625 c 0
 136.138671875 299.518554688 123.887695312 260.533203125 123.887695312 229.661132812 c 0
 123.887695312 218.581054688 125.465820312 208.546875 129.578125 200.322265625 c 0
 140.634765625 178.209960938 164.776367188 171.799804688 190.8515625 171.799804688 c 0
 201.498046875 171.799804688 212.465820312 172.868164062 222.998046875 174.372070312 c 0
 227.749023438 175.051757812 232.9453125 175.286132812 238.4453125 175.286132812 c 0
 250.807617188 175.286132812 446.151367188 166.587890625 460.0078125 166.587890625 c 0
 487.124023438 166.587890625 514.073242188 171.130859375 529 198 c 0
 554.950195312 244.709960938 558.618164062 436.467773438 558.618164062 436.467773438 c 25
 558.618164062 436.467773438 591.280273438 281.040039062 591.280273438 239.520507812 c 0
 591.280273438 198 586.08984375 153.885742188 560.139648438 130.530273438 c 0
 541.013671875 113.31640625 241.770507812 110.6640625 170.747070312 110.6640625 c 0
 145.407226562 110.6640625 126.021484375 111.958007812 119.198242188 114.6875 c 0
 93.248046875 125.067382812 71.623046875 148.422851562 71.623046875 189.942382812 c 0xdc
 71.623046875 217.353515625 58.8037109375 305.841796875 58.8037109375 367.293945312 c 0
 58.8037109375 398.923828125 62.2001953125 423.391601562 72.48828125 428.682617188 c 0
 80.7451171875 432.928710938 88.744140625 434.47265625 96.0126953125 434.47265625 c 0
 115.39453125 434.47265625 129.578125 423.4921875 129.578125 423.4921875 c 1xec
496.1640625 435.569335938 m 1
 496.1640625 435.569335938 499.64453125 420.329101562 499.64453125 396.7421875 c 0
 499.64453125 351.688476562 486.9453125 276.18359375 413.034179688 218.270507812 c 0
 412.30078125 217.702148438 411.451171875 217.16796875 410.494140625 216.666015625 c 0
 402.787109375 212.631835938 388.112304688 210.765625 370.537109375 210.765625 c 0
 332.392578125 210.765625 280.584960938 219.559570312 256.702148438 234.072265625 c 0
 220.450195312 256.1015625 213.205078125 269.8828125 201.129882812 292.8515625 c 0
 195.08203125 304.354492188 191.950195312 348.235351562 191.950195312 390.02734375 c 0
 191.950195312 431.6875 195.0625 471.272460938 201.500976562 474.643554688 c 0
 214.3984375 481.395507812 266.078529241 526.211316903 382.158203125 586.977539062 c 0
 403.654296875 598.23046875 417.401367188 597.004882812 469 624 c 4
 470.203569827 624.629658019 579.496688543 672.7095932 593.523819309 672.7095932 c 0
 594.486058273 672.7095932 595 672.483341392 595 672 c 4
 595 664.705078125 402.379092768 546.595346791 374.26171875 531.877929688 c 0
 344.166015625 516.125 290.690429688 482.274414062 267.30859375 464.178710938 c 0
 252.942382812 453.05859375 238.866210938 417.762695312 238.866210938 380.455078125 c 0
 238.866210938 361.629882812 242.450195312 342.29296875 251.388671875 325.290039062 c 0
 253.565429688 321.149414062 256.05859375 317.147460938 258.895507812 313.326171875 c 0
 285.546875 277.423828125 308.287109375 254.205078125 335.265625 254.205078125 c 0
 343.922851562 254.205078125 353.016601562 256.596679688 362.81640625 261.725585938 c 0
 365.5390625 263.150390625 368.317382812 264.7890625 371.157226562 266.645507812 c 0
 409.063476562 291.434570312 432.806640625 350.606445312 432.806640625 393.25 c 0
 432.806640625 401.091796875 432.00390625 408.375 430.338867188 414.782226562 c 0
 426.526367188 429.44921875 422.037109375 440.70703125 417.50390625 449.331054688 c 0
 405.03515625 473.047851562 392.228515625 476.844726562 392.228515625 476.844726562 c 1
 392.1328125 477.02734375 392.0859375 477.26171875 392.0859375 477.54296875 c 0
 392.0859375 482.499023438 406.59765625 502.051757812 423.03125 510.653320312 c 0
 427.84375 513.172851562 432.821289062 514.752929688 437.647460938 514.752929688 c 0
 442.883789062 514.752929688 447.942382812 512.892578125 452.418945312 508.3515625 c 0
 460.517578125 499.8984375 496.1640625 435.569335938 496.1640625 435.569335938 c 1
EndSplineSet
Validated: 1
LCarets2: 1 191
Ligature2: "'liga' Standard Ligatures in Latin lookup 1-1" o n
EndChar

StartChar: r_e
Encoding: 261 -1 58
Width: 686
VWidth: 0
Flags: W
HStem: 119.193 76.6003<307.238 623.04> 124.26 50.7402<81.3823 361.949> 213.154 60.8057<247.71 395.547> 590.967 20G<419.885 435.251>
VStem: 126.289 74.8574<346.533 495.058> 463.13 76.6025<327.32 460.427>
LayerCount: 2
Fore
SplineSet
625 183 m 0xbc
 632 181 638.559570312 172.46875 638.559570312 164.1171875 c 4
 638.559570312 161.703523721 638.741388252 159.214251786 638.741388252 156.703950123 c 0
 638.741388252 140.432630951 631.102495132 123.277769399 516.796875 120.102539062 c 4
 493.537036017 119.45641732 472.955226849 119.193313345 454.133338222 119.193313345 c 0xbc
 371.538772798 119.193313345 322.83405423 124.259765625 230.4375 124.259765625 c 0
 125.578125 124.259765625 79.21875 126.306640625 61.1962890625 146.90234375 c 0
 51.4697265625 158.018554688 31.716796875 183.26171875 31.716796875 216.58203125 c 0
 31.716796875 311.784179688 34.396484375 484.58203125 34.396484375 484.58203125 c 1
 34.396484375 484.58203125 75.9375 204.522460938 81.296875 183.08203125 c 0
 82.7509765625 177.265625 107.873046875 175 145 175 c 0x7c
 244.7265625 175 432.405118199 179.290970471 479.276367188 187.102539062 c 0
 513.572476952 192.818333278 530.653401434 195.793641932 546.635385544 195.793641932 c 0
 565.479158482 195.793641932 582.795194887 191.657395921 625 183 c 0xbc
355.2734375 610.755859375 m 1
 355.2734375 610.755859375 281.064453125 576.505859375 235.396484375 519.421875 c 0
 202.098632812 477.560546875 201.146484375 450.921875 201.146484375 399.545898438 c 0
 201.146484375 348.168945312 229.688476562 319.627929688 246.814453125 296.793945312 c 0
 263.939453125 273.959960938 332.439453125 273.959960938 360.982421875 273.959960938 c 0
 389.524414062 273.959960938 423.774414062 313.919921875 446.607421875 331.044921875 c 0
 459.23046875 340.51171875 463.129882812 358.69921875 463.129882812 379.82421875 c 0
 463.129882812 396.9140625 460.578125 415.92578125 458.025390625 433.795898438 c 0
 452.392578125 473.22265625 349.508789062 514.500976562 349.508789062 552.149414062 c 0
 349.508789062 552.65625 349.52734375 553.1640625 349.565429688 553.671875 c 0
 355.2734375 622.172851562 389.524414062 605.047851562 418.065429688 610.755859375 c 0
 418.771484375 610.896484375 419.504882812 610.966796875 420.264648438 610.966796875 c 0
 450.237304688 610.966796875 521.099609375 503.494140625 532.234375 475.658203125 c 0
 536.963867188 463.834960938 539.732421875 446.7890625 539.732421875 426.413085938 c 0
 539.732421875 397.595703125 534.193359375 362.119140625 520.81640625 325.3359375 c 0
 497.983398438 262.543945312 400.940429688 228.29296875 298.189453125 214.022460938 c 0
 293.970703125 213.436523438 289.819335938 213.154296875 285.735351562 213.154296875 c 0
 190.376953125 213.154296875 132.412109375 367.404296875 126.9375 416.669921875 c 0
 126.497070312 420.643554688 126.2890625 424.51953125 126.2890625 428.302734375 c 0
 126.2890625 473.4453125 155.92578125 505.380859375 172.60546875 530.838867188 c 0
 218.272460938 599.33984375 355.2734375 610.755859375 355.2734375 610.755859375 c 1
EndSplineSet
Validated: 1
LCarets2: 1 96
Ligature2: "'liga' Standard Ligatures in Latin lookup 1-1" r e
EndChar

StartChar: h_a
Encoding: 262 -1 59
Width: 763
VWidth: 0
Flags: W
HStem: 97 40.5498<184.471 393.897> 287 101.057<234.585 563.577> 509 96<248.995 521.687> 521 76<154.953 416.082>
VStem: 50.3018 63.6982<212.477 470.744> 641.054 69.7333<26.7871 236.953>
LayerCount: 2
Fore
SplineSet
550 517 m 1xec
 550 517 472 509 418 509 c 0xec
 377.5 509 309.84375 521 246 521 c 0
 224.71875 521 189.71875 519.875 180.71875 516.875 c 0
 144.71875 504.875 128 459 128 441 c 0
 128 431 114 368.72265625 114 321 c 0
 114 282.821289062 132.578125 200.920898438 154 177 c 0
 181.01171875 146.836914062 250.178710938 137.549804688 322.450195312 137.549804688 c 0
 410.71484375 137.549804688 451.609375 154.40234375 478 161 c 0
 478.547266096 161.136779874 480.230014219 161.194903067 482.69708705 161.194903067 c 0
 496.66394524 161.194903067 535.768727059 159.33203125 536.294921875 159.33203125 c 0
 536.432617188 159.33203125 536.5 159.311523438 536.5 159.270507812 c 0
 536.5 157.072265625 341.54296875 97 298 97 c 0
 250 97 106 97 82 147 c 0
 71.6376953125 168.944335938 50.3017578125 308.225585938 50.3017578125 383.876953125 c 0
 50.3017578125 432.33203125 55.7734375 478.888671875 71 507 c 0
 110 579 134 597 194 597 c 0xdc
 234 597 349.555664062 605 427.481445312 605 c 0
 466.444335938 605 516 599 522 593 c 0
 540 575 550 517 550 517 c 1xec
609 -162 m 1
 609 -162 621 -120 639 -24 c 0
 640.529207851 -15.8436117637 641.053823794 -5.61502422583 641.053823794 5.64334359532 c 0
 641.053823794 30.2542394577 638.546875 59.7860807742 638.546875 83.349609375 c 0
 638.546875 175.876953125 618.134765625 305 570 305 c 0
 504 305 356 287 296 287 c 0
 236 287 213 334 213 334 c 1
 213 334 213 369 242 381 c 0
 252.158203125 385.203125 301.330078125 388.056640625 362.659179688 388.056640625 c 0
 476.420898438 388.056640625 632.010742188 378.23828125 658 349 c 0
 698.639648438 304.005859375 710.787109375 204.625976562 710.787109375 145.373046875 c 0
 710.787109375 122.977539062 709.194335938 102.45703125 707 86 c 0
 699 26 609 -162 609 -162 c 1
EndSplineSet
Validated: 1
LCarets2: 1 294
Ligature2: "'liga' Standard Ligatures in Latin lookup 1-1" h a
EndChar

StartChar: a_t
Encoding: 263 -1 60
Width: 686
VWidth: 0
Flags: W
HStem: -95.6314 85.3617<335.155 376.715> 23.0959 34.8764<241.709 463.7> 524.028 92.9717<38.1247 347.586>
VStem: 335.179 71.0187<-69.1702 -11.7569> 427.701 59.833<248.273 477.985> 549.329 56.7584<388.053 567.536>
LayerCount: 2
Fore
SplineSet
335.155273438 -12.3984375 m 1
 335.155273438 -12.3984375 351.113989745 -10.2697278689 367.903921265 -10.2697278689 c 0
 386.53897531 -10.2697278689 406.197975103 -12.8920128567 406.197975103 -23.9575026391 c 0
 406.197975103 -64.1154297567 386.009967731 -68.2847861527 342.995117188 -93.3583984375 c 0
 340.32003746 -94.9177788242 338.048486648 -95.6313925076 336.130737077 -95.6313925076 c 0
 329.144863804 -95.6313925076 326.853789156 -86.1620290435 326.853789156 -73.6112816862 c 0
 326.853789156 -49.6861560164 335.179254554 -14.563684596 335.179254554 -12.4942917044 c 0
 335.179254554 -12.4308146158 335.17142104 -12.3984375 335.155273438 -12.3984375 c 1
280.275390625 688.641601562 m 1
 280.275390625 688.641601562 290.009233724 718.338400822 359.322952346 718.338400822 c 0
 377.984229288 718.338400822 400.964115471 716.185847287 429.235351562 710.721679688 c 0
 514.446950452 694.252763215 606.087590329 719.649321249 606.087590329 620.296565899 c 0
 606.087590329 616.297342543 605.939106348 612.095989711 605.635742188 607.681640625 c 0
 597.795898438 493.6015625 617.395507812 258.08203125 566.435546875 103.521484375 c 0
 545.922648607 41.3064681522 472.12056665 23.0958651048 393.116329137 23.0958651048 c 0
 283.779788205 23.0958651048 164.479717508 57.9740773323 162.67578125 59.361328125 c 0
 162.026283476 59.8608460456 161.710872053 60.2936040833 161.710872053 60.6659284309 c 0
 161.710872053 62.1032761809 166.411525676 62.6399658586 174.738397843 62.6399658586 c 0
 199.29518027 62.6399658586 255.389886841 57.9722719127 315.464442802 57.9722719127 c 0
 399.471195152 57.9722719127 491.260353602 67.0997253127 515.475585938 110.881835938 c 0
 541.097819668 157.208008327 549.329191017 251.571842664 549.329191017 346.789343617 c 0
 549.329191017 453.73490544 538.945203208 561.757379404 531.155273438 604.001953125 c 0
 525.31229169 635.689161739 504.486242359 641.486816348 478.428628137 641.486816348 c 0
 463.390423517 641.486816348 446.609793086 639.555848607 429.961107876 639.555848607 c 0
 423.120368372 639.555848607 416.301905006 639.88185134 409.635742188 640.801757812 c 0
 300.420898438 655.872070312 280.275390625 688.641601562 280.275390625 688.641601562 c 1
395.4140625 110.948242188 m 1
 395.4140625 110.948242188 407.173828125 149.587890625 424.814453125 237.908203125 c 0
 426.3125 245.412109375 427.701171875 261.623046875 427.701171875 272.881835938 c 0
 427.701171875 297.4921875 424.370117188 314.991210938 424.370117188 336.669921875 c 0
 424.370117188 421.794921875 404.366210938 540.587890625 357.194335938 540.587890625 c 0
 292.513671875 540.587890625 147.473632812 524.028320312 88.673828125 524.028320312 c 0
 29.8740234375 524.028320312 20.6103515625 561.149414062 20.6103515625 561.149414062 c 1
 20.6103515625 561.149414062 31.3896484375 601.630859375 59.8095703125 612.669921875 c 0
 69.7646484375 616.536132812 93.8974609375 617 154 617 c 0
 265.486328125 617 417.737304688 607.775390625 443.43359375 581.068359375 c 0
 483.260742188 539.672851562 487.534179688 471.8203125 487.534179688 417.307617188 c 0
 487.534179688 396.704101562 477.924804688 296.288085938 475.774414062 281.147460938 c 0
 467.93359375 225.948242188 395.4140625 110.948242188 395.4140625 110.948242188 c 1
EndSplineSet
Validated: 1
LCarets2: 1 510
Ligature2: "'liga' Standard Ligatures in Latin lookup 1-1" a t
EndChar

StartChar: b_a
Encoding: 264 -1 61
Width: 690
VWidth: 0
Flags: W
HStem: 487.614 96.3857<50.4758 353.833> 618 101.057<169.585 498.577>
VStem: 440.91 68.0898<148.915 449.116> 576.054 69.7333<312.112 567.953>
LayerCount: 2
Fore
SplineSet
19 548 m 1
 19 548 68 584 158 584 c 0
 248 584 422 566 464 524 c 0
 506 482 509 266 509 200 c 0
 509 134 446 98 428 83 c 0
 425.322265625 80.7685546875 414.366210938 79.8203125 397.760742188 79.8203125 c 0
 307.120117188 79.8203125 48.1435546875 108.060546875 48.1435546875 109.920898438 c 0
 48.1435546875 109.984375 48.4443359375 110.017578125 49.0615234375 110.017578125 c 0
 49.3193359375 110.017578125 49.6318359375 110.01171875 50 110 c 0
 50.525390625 109.98046875 51.1650390625 109.970703125 51.9140625 109.970703125 c 0
 89.619140625 109.970703125 404.467773438 134.350585938 428 152 c 0
 438.393554688 159.795898438 440.91015625 199.1015625 440.91015625 243.112304688 c 0
 440.91015625 284.426757812 438.692382812 329.887695312 438.692382812 357.317382812 c 0
 438.692382812 368.13671875 439.038085938 376.151367188 440 380 c 0
 440.522460938 382.090820312 440.772460938 384.728515625 440.772460938 387.805664062 c 0
 440.772460938 420.045898438 413.385742188 500.522460938 386 506 c 0
 381.811523438 506.837890625 373.997070312 507.208007812 363.536132812 507.208007812 c 0
 299.076171875 507.208007812 134.135742188 493.162109375 98 488 c 0
 96.173828125 487.739257812 94.357421875 487.614257812 92.552734375 487.614257812 c 0
 52.8525390625 487.614257812 19 548 19 548 c 1
586 107 m 1
 586 107 568.248920757 168.539077934 568.248920757 240.637860673 c 0
 568.248920757 262.267026086 569.846448547 284.846523683 574 307 c 0
 575.529207851 315.156388236 576.053823794 325.384975774 576.053823794 336.643343595 c 0
 576.053823794 361.254239458 573.546875 390.786080774 573.546875 414.349609375 c 0
 573.546875 506.876953125 553.134765625 636 505 636 c 0
 439 636 291 618 231 618 c 0
 171 618 148 665 148 665 c 1
 148 665 148 700 177 712 c 0
 187.158203125 716.203125 236.330078125 719.056640625 297.659179688 719.056640625 c 0
 411.420898438 719.056640625 567.010742188 709.23828125 593 680 c 0
 633.639648438 635.005859375 645.787109375 535.625976562 645.787109375 476.373046875 c 0
 645.787109375 453.977539062 644.194335938 433.45703125 642 417 c 0
 634 357 586 107 586 107 c 1
EndSplineSet
Validated: 1
LCarets2: 1 483
Ligature2: "'liga' Standard Ligatures in Latin lookup 1-1" b a
EndChar

StartChar: e_s
Encoding: 265 -1 62
Width: 616
VWidth: 0
Flags: W
HStem: 237.774 87.817<75.8639 258.157> 354.027 49.8525<130.362 265.524>
VStem: 33.7881 61.3721<453.652 591.07> 309.946 62.8018<444.899 561.053> 481.4 79.5996<359.332 415.284> 530.8 45.2364<92.208 199.579>
LayerCount: 2
Fore
SplineSet
507 429 m 5xf8
 507 429 561 413 561 390 c 4
 561 387 560.684570312 383.947265625 559 381 c 4
 545 356.5 515.6875 344.25 495.1796875 344.25 c 4
 492.25 344.25 489.5 344.5 487 345 c 4
 483 345.799804688 481.400390625 349.639648438 481.400390625 355.272460938 c 4
 481.400390625 377.799804688 507 429 507 429 c 5xf8
26.2001953125 318.559570312 m 1
 26.2001953125 318.559570312 63.1909906075 325.590597962 139.876864922 325.590597962 c 0
 197.103982425 325.590597962 276.437074519 321.675056731 379 308 c 0
 537.18919168 286.908107776 576.036417801 269.58533346 576.036417801 217.080291291 c 0
 576.036417801 189.926224093 565.646125459 153.36211441 556 102 c 0
 535.799804688 -5.5595703125 530.799804688 -12.5595703125 530.799804688 -12.5595703125 c 1
 530.800013401 -11.9085300528 l 0xf4
 530.800013401 0.961986788275 530.612537407 200.51661679 519 216 c 0
 510.039447915 227.94740278 369.044104033 252.47356665 259.889919889 252.47356665 c 0
 222.864471651 252.47356665 189.502629327 249.651615447 166.200195312 242.559570312 c 0
 155.284941075 239.237536414 144.98904909 237.773589273 135.31919969 237.773589273 c 0
 63.4860327155 237.773589273 26.2001953125 318.559570312 26.2001953125 318.559570312 c 1
221.520507812 680 m 1
 221.520507812 680 160.680664062 651.919921875 123.240234375 605.119140625 c 0
 95.9404296875 570.799804688 95.16015625 548.959960938 95.16015625 506.83984375 c 0
 95.16015625 464.719726562 118.560546875 441.319335938 132.600585938 422.599609375 c 0
 146.640625 403.879882812 202.799804688 403.879882812 226.200195312 403.879882812 c 0
 249.600585938 403.879882812 277.680664062 436.639648438 296.400390625 450.6796875 c 0
 306.748046875 458.440429688 309.946289062 473.352539062 309.946289062 490.670898438 c 0
 309.946289062 504.682617188 307.853515625 520.268554688 305.759765625 534.919921875 c 0
 301.142578125 567.243164062 216.793945312 601.084960938 216.793945312 631.950195312 c 0
 216.793945312 632.3671875 216.80859375 632.783203125 216.83984375 633.19921875 c 0
 221.520507812 689.359375 249.600585938 675.319335938 273 680 c 0
 273.578125 680.115234375 274.1796875 680.171875 274.802734375 680.171875 c 0
 299.375976562 680.171875 357.471679688 592.061523438 366.600585938 569.239257812 c 0
 370.477539062 559.546875 372.748046875 545.572265625 372.748046875 528.866210938 c 0
 372.748046875 505.241210938 368.206054688 476.15625 357.240234375 446 c 0
 338.520507812 394.51953125 258.959960938 366.439453125 174.719726562 354.739257812 c 0
 171.260742188 354.258789062 167.857421875 354.02734375 164.509765625 354.02734375 c 0
 86.3310546875 354.02734375 38.80859375 480.48828125 34.3203125 520.879882812 c 0
 33.9580078125 524.13671875 33.7880859375 527.314453125 33.7880859375 530.416015625 c 0
 33.7880859375 567.42578125 58.0859375 593.608398438 71.759765625 614.479492188 c 0
 109.200195312 670.639648438 221.520507812 680 221.520507812 680 c 1
EndSplineSet
Validated: 1
LCarets2: 1 390
Ligature2: "'liga' Standard Ligatures in Latin lookup 1-1" e s
EndChar

StartChar: o_f
Encoding: 266 -1 63
Width: 773
VWidth: 0
Flags: W
HStem: 75.2833 58.7167<163.65 490.067> 182.999 44.8595<304.664 572.609> 546 51.6836G<231 231 626.398 626.947>
VStem: 37.7711 117.741<163.165 271.513> 188.04 99.4453<352.938 541.913> 598 29<405.284 466.428> 700.123 33.0565<154.001 292.179>
LayerCount: 2
Fore
SplineSet
153 270 m 0
 155.631086125 253.884597484 156.315187007 239.391682671 156.315187007 226.42342649 c 0
 156.315187007 212.373691191 155.512228188 200.113513728 155.512228188 189.518492031 c 0
 155.512228188 150.422672321 166.445501831 134 269 134 c 0
 425 134 645 138 685 154 c 0
 696.111111111 158.444444444 700.12345679 186.654320988 700.12345679 225.255144033 c 0
 700.12345679 325.617283951 673 496.222222222 673 502 c 0
 673 502.11564702 673.013374233 502.17278177 673.039723944 502.17278177 c 0
 674.780906807 502.17278177 733.179981635 252.691824745 733.179981635 151.19943234 c 0
 733.179981635 147.97979798 733.121212121 144.909090909 733 142 c 0
 730.522232968 82.5335912288 539.260084871 73.7166505482 375.031367574 73.7166505482 c 0
 305.803188063 73.7166505482 241.378630118 75.2833494518 197.923177881 75.2833494518 c 0
 178.045476047 75.2833494518 162.555340643 74.9555340643 153 74 c 0
 148.091469677 73.5091469677 143.522444075 73.2692635366 139.259996726 73.2692635366 c 0
 74.0524060881 73.2692635366 80.5944339931 129.410051572 41 202 c 0
 38.7847474342 206.061296371 37.7711461686 210.941390278 37.7711461686 216.363222571 c 0
 37.7711461686 253.187736433 84.5284035098 315.002551696 119.125155812 315.002551696 c 0
 134.621014708 315.002551696 147.677309393 302.601651352 153 270 c 0
231 566 m 1
 231 566 279 548 285 542 c 0
 286.7578125 540.2421875 287.485351562 532.30859375 287.485351562 520.006835938 c 0
 287.485351562 490.30859375 283.2421875 435.154296875 279 380 c 0
 278.26171875 370.397460938 277.88671875 360.977539062 277.88671875 351.817382812 c 0
 277.88671875 251.733880045 305.305569763 227.858524775 383.90226412 227.858524775 c 0
 384.665684202 227.858524775 385.433932655 227.860777294 386.20703125 227.865234375 c 0
 455.5546875 228.265625 493.926700582 230.472096249 556 239 c 0
 586.309570312 243.1640625 592.000976562 307 598 343 c 0
 603.71484375 377.291992188 625.875 597.68359375 626.920898438 597.68359375 c 0
 626.97265625 597.68359375 627 597.138671875 627 596 c 0
 627 572 639 326 639 302 c 0
 639 278 627 212 591 188 c 0
 578.439453125 179.625976562 554.920898438 177.095703125 527.328125 177.095703125 c 0
 485.181640625 177.095703125 433.528320312 182.999023438 396.887695312 182.999023438 c 0
 388.764648438 182.999023438 381.379882812 182.708984375 375 182 c 0
 359.431640625 180.270507812 343.365234375 178.291015625 327.662109375 178.291015625 c 0
 288.897460938 178.291015625 252.350585938 190.352539062 231 248 c 0
 201 329 219 338 201 398 c 0
 190.200195312 434 188.040039062 463.51953125 188.040039062 486.559570312 c 0
 188.040039062 501.919921875 189 514.400390625 189 524 c 0
 189 548 231 566 231 566 c 1
EndSplineSet
Validated: 1
LCarets2: 1 220
Ligature2: "'liga' Standard Ligatures in Latin lookup 1-1" o f
EndChar

StartChar: n_t
Encoding: 269 -1 64
Width: 956
VWidth: 0
Flags: W
HStem: 223.494 53.7171<339.811 441> 375.198 100.759<554.319 721.66> 547.658 73.0811<202.989 286.8> 618.055 20G<733.86 737.403>
VStem: 51.1527 74.9078<370.973 508.815> 381.475 75.7959<356.779 460.432> 712.266 93.6944<509.509 601.508> 862.575 52.1189<264.326 344.616>
LayerCount: 2
Fore
SplineSet
765 498 m 1xdf
 765 498 712.265625 505.03125 712.265625 532.27734375 c 0
 712.265625 534.09375 712.5 536 713 538 c 0
 721 570 733 638 733 638 c 17
 733 638 733.442906574 638.055363322 734.276613067 638.055363322 c 0
 740.529411765 638.055363322 768.764705882 634.941176471 797 582 c 0
 803.4 570 805.96 559.44 805.96 550.224 c 0
 805.96 513.36 765 498 765 498 c 1xdf
189 138 m 9
 189 138 745 174 797 222 c 0
 830.62352161 253.037096871 862.574644987 279.056999043 862.574644987 306.548004761 c 0
 862.574644987 321.572840005 853.030779433 337.037096871 829 354 c 0
 791.851842464 380.222141293 756.297996538 387.622217458 723.640241761 387.622217458 c 0
 681.323641123 387.622217458 643.869557399 375.197541008 614.11010497 375.197541008 c 0
 606.563147154 375.197541008 599.511048697 375.996600401 593 378 c 0
 557.103957508 389.044936151 534.550638487 407.714285714 534.550638487 430.060650596 c 0
 534.550638487 440.085847958 539.089872303 450.85110634 549 462 c 0
 557.699136036 471.786528041 579.404907159 475.956554567 607.688535641 475.956554567 c 0
 683.446976127 475.956554567 806.398272072 446.03868795 853 414 c 0
 897.204330149 383.609523022 914.693504776 349.402595256 914.693504776 307.425224887 c 0
 914.693504776 288.626836535 911.186146828 268.270128582 905 246 c 0
 885 174 789 138 189 138 c 9
455.403320312 457.69921875 m 1
 455.403320312 457.69921875 457.270546192 415.327367199 457.270546192 385.771938563 c 0
 457.270546192 373.480951545 456.947625515 363.406454777 456.033203125 359.517578125 c 0
 452.563476562 345.703125 440.461914062 340.309570312 426.490234375 339.36328125 c 0
 424.928287197 339.257633474 423.34298539 339.207583813 421.743780898 339.207583813 c 0
 398.582537468 339.207583813 372.505113633 349.70583314 372.225585938 353.846679688 c 1
 372.225585938 353.846679688 381.474597927 363.473219011 381.474597927 388.712990481 c 0
 381.474597927 391.095003649 381.392219628 393.616079402 381.211914062 396.28125 c 0
 380.451171875 407.51953125 377.94921875 421.3203125 372.540039062 438.059570312 c 0
 357.327148438 485.139648438 281.03515625 546.127929688 214.78125 547.658203125 c 0
 210.58984375 547.755859375 206.603515625 547.673828125 202.811523438 547.416992188 c 0
 146.645507812 543.616210938 132.953125 501.474609375 126.291992188 433.423828125 c 0
 125.75390625 427.939453125 125.6953125 422.486328125 126.060546875 417.091796875 c 0
 130.53125 351.025390625 198.619140625 293.534179688 232.19921875 290.247070312 c 0
 266.929823583 286.847348728 436.030654849 277.210828644 558.828159586 277.210828644 c 0
 578.296287982 277.210828644 596.57850674 277.836359462 613.004328921 278.000043138 c 0
 614.002794125 278.000043138 753.096402331 274.402992256 753.096402331 274.015361479 c 0
 753.096402331 270.673629031 441 226.198242188 441 226.198242188 c 2
 412.66053036 224.280509255 386.463043034 223.493736499 362.430830919 223.493736499 c 0
 252.561099564 223.493736499 187.947948246 239.938133045 170.817127273 239.938133045 c 0
 170.324087271 239.938133045 169.870378722 239.924511515 169.456054688 239.896484375 c 0
 169.383484152 239.891571362 169.309617508 239.88912379 169.234466284 239.88912379 c 0
 150.711991973 239.88912379 54.1549015279 388.572122769 52.1376953125 418.3828125 c 0
 51.6185794356 426.054414056 51.152709826 432.939510507 51.152709826 439.673536866 c 0
 51.152709826 459.213093077 55.0750399917 477.48073379 73 510 c 0
 96.1943359375 552.079101562 190.141601562 618.436523438 224.1640625 620.739257812 c 0xef
 225.497070312 620.829101562 226.737304688 620.821289062 227.87890625 620.709960938 c 0
 403.506835938 602.525390625 455.403320312 457.69921875 455.403320312 457.69921875 c 1
EndSplineSet
Validated: 1
LCarets2: 1 493
Ligature2: "'liga' Standard Ligatures in Latin lookup 1-1" n t
EndChar

StartChar: e_a
Encoding: 270 -1 65
Width: 656
VWidth: 0
Flags: W
HStem: 119.087 63.9131<158.52 306.814> 606 80.0617<265.737 485.165>
VStem: 28.3174 78.6826<260.152 413.68> 382.366 80.5156<240.469 378.229> 561 48.2383<287.835 504.983>
LayerCount: 2
Fore
SplineSet
269 537 m 1
 269 537 191 501 143 441 c 0
 108 397 107 369 107 315 c 0
 107 261 137 231 155 207 c 0
 173 183 245 183 275 183 c 0
 305 183 341 225 365 243 c 0
 378.266601562 252.950195312 382.366210938 272.067382812 382.366210938 294.271484375 c 0
 382.366210938 312.234375 379.68359375 332.216796875 377 351 c 0
 371.080078125 392.440429688 262.940429688 435.827148438 262.940429688 475.3984375 c 0
 262.940429688 475.932617188 262.959960938 476.466796875 263 477 c 0
 269 549 305 531 335 537 c 0
 335.741210938 537.1484375 336.512695312 537.220703125 337.310546875 537.220703125 c 0
 368.815429688 537.220703125 443.296875 424.258789062 455 395 c 0
 459.970703125 382.573242188 462.881835938 364.657226562 462.881835938 343.239257812 c 0
 462.881835938 312.951171875 457.05859375 275.662109375 443 237 c 0
 419 171 317 135 209 120 c 0
 204.565429688 119.383789062 200.202148438 119.086914062 195.91015625 119.086914062 c 0
 95.6806640625 119.086914062 34.75390625 281.216796875 29 333 c 0
 28.5361328125 337.17578125 28.3173828125 341.25 28.3173828125 345.2265625 c 0
 28.3173828125 392.674804688 59.46875 426.2421875 77 453 c 0
 125 525 269 537 269 537 c 1
511.872070312 75.2109375 m 1
 511.872070312 75.2109375 526.711914062 127.192382812 549 246 c 0
 549.631184896 249.364583333 549.841579861 255.604600694 549.841579861 262.9453125 c 0
 549.841579861 277.626736111 549 296.7109375 549 306 c 0
 549 336.458984375 561 366.836914062 561 396 c 0
 561 510.51171875 494.571289062 606 435 606 c 0
 353.318359375 606 299.255859375 582 225 582 c 0
 154.998195561 582 152.992589753 635.320822512 152.992589753 641.431553638 c 0
 152.992589753 641.80299197 153 642 153 642 c 1
 153 642 145.209173672 648.897862094 145.209173672 657.580447323 c 0
 145.209173672 664.1023238 149.604899043 671.631173407 165 678 c 0
 177.572265625 683.201171875 275.099609375 684 351 684 c 0
 408.448551461 684 445.73018418 686.061681404 471.942356368 686.061681404 c 0
 509.969644497 686.061681404 524.699334883 681.722515652 543.909179688 660.454101562 c 0
 594.204101562 604.76953125 609.23828125 481.776367188 609.23828125 408.4453125 c 0
 609.23828125 380.728515625 607.266601562 355.333007812 604.55078125 334.965820312 c 0
 594.650390625 260.708984375 511.872070312 75.2109375 511.872070312 75.2109375 c 1
EndSplineSet
Validated: 1
LCarets2: 1 432
Ligature2: "'liga' Standard Ligatures in Latin lookup 1-1" e a
EndChar

StartChar: a_n
Encoding: 256 -1 66
Width: 1076
VWidth: 0
HStem: 27.529 59.068<577.522 777.757> 462.293 71.9809<772.073 907.871> 495.628 101.314<80.0605 277.982> 518.061 79.2571<179.639 407.522>
VStem: 486.321 25.6788<235.927 359.882> 486.321 1.67884<173.704 179.926> 586.181 90.0041<195.613 381.025> 937.037 75.7758<249.286 430.966>
LayerCount: 2
Fore
SplineSet
488 177 m 0x97
 487.1227292 173.315462639 486.638309507 171.701563558 486.435892246 171.701563558 c 0
 486.35723958 171.701563558 486.321164856 171.945236987 486.321164856 172.405788093 c 0
 486.321164856 177.515337896 490.761468179 209.31955209 490.761468179 231.226913959 c 0
 490.761468179 262.203294335 487.633364204 304.647280058 474.900390625 355.892578125 c 0
 453.717231432 441.145337108 411.170557402 518.060771195 366.430317047 518.060771195 c 0x97
 364.04507419 518.060771195 361.653596578 517.842155127 359.258789062 517.39453125 c 0
 294.250289922 505.243967776 193.666720435 495.628045459 133.473855084 495.628045459 c 0
 73.8045192955 495.628045459 69 510 50.7373046875 542.30859375 c 16
 47.9866903804 547.096839119 46.6365017867 551.728648503 46.6365017867 556.173551281 c 0
 46.6365017867 569.079781781 58.0198163331 580.410220065 79.556640625 589.418945312 c 0
 89.6982421875 593.661132812 138.858398438 596.705078125 200.186523438 596.942382812 c 0xa7
 227.960248467 597.049194744 254.473884404 597.317883421 279.139947768 597.317883421 c 0
 355.505693143 597.317883421 414.162253632 594.742493991 437.67578125 576.814453125 c 0
 490.708551167 536.379275479 512 422.283203125 512 401 c 0x9b
 512 336.85546875 506.594671349 255.097619666 488 177 c 0x97
601.879882812 380.375 m 0
 650.48129737 478.259263498 690 509 837.099609375 532.6484375 c 0
 843.943636961 533.748716143 850.615727023 534.274123507 857.110811715 534.274123507 c 0
 955.109760977 534.274123507 1012.8129229 414.663609363 1012.8129229 345.344503666 c 0
 1012.8129229 341.832113859 1012.66477377 338.44884399 1012.36621094 335.216796875 c 0
 994.167624239 138.210725677 873.850164034 27.5290484217 709.826835956 27.5290484217 c 0
 593.573965145 27.5290484217 455.365970951 83.1286737955 316 203 c 1
 443.461739981 123.336412512 562.03027787 86.5970069551 660.768426263 86.5970069551 c 0
 816.115250173 86.5970069551 922.375124581 177.539514452 936.953125 335.337890625 c 0
 937.430830395 340.508773699 937.477539062 345.744140625 937.037109375 351.017578125 c 0
 931.219729294 420.69201183 916.651210169 462.293222728 849.660820508 462.293222728 c 0xc3
 849.450504254 462.293222728 849.239671305 462.292812687 849.028320312 462.291992188 c 0
 781.431640625 462.04296875 702.435546875 404.909179688 686 360 c 0
 679.562029152 342.408545899 676.184796343 330.020622187 676.184796343 316.182541148 c 0
 676.184796343 279.819363601 708 149 708 149 c 1
 707.64072732 145.116816435 681.98158528 135.846992723 658.75241487 135.846992723 c 0
 656.599014662 135.846992723 654.466496993 135.926655158 652.376953125 136.09765625 c 0
 638.145507812 137.262695312 625.91015625 142.662109375 622.641601562 155.986328125 c 0
 620.486310301 165.424121114 586.180676251 235.260120466 586.180676251 306.74202293 c 0
 586.180676251 331.939646667 590.443451334 357.341788261 601.879882812 380.375 c 0
EndSplineSet
Validated: 1
LCarets2: 1 559
Ligature2: "'liga' Standard Ligatures in Latin lookup 1-1" a n
EndChar

StartChar: n_d
Encoding: 258 -1 67
Width: 972
VWidth: 0
Flags: W
HStem: 112.448 49.5329<300.538 629.874> 522.23 48.0316<199.626 301.845> 544.244 72.2559<574.565 847.345>
VStem: 62.6635 60.3495<298.425 441.312> 364.535 80.7925<283.095 445.149> 510 60.7168<400.066 536.729> 521 80<264.118 453.26> 905.657 18.1324<263.446 351.124>
LayerCount: 2
Fore
SplineSet
436.442382812 282.227539062 m 1xd9
 436.442382812 282.227539062 387.201171875 212.915039062 376.608398438 204.381835938 c 0
 371.883407496 200.691862586 366.868443275 199.118728776 361.77942963 199.118728776 c 0
 354.77801586 199.118728776 347.636441491 202.096353233 340.916992188 206.635742188 c 0
 322.196041278 219.283557274 306.754256106 244.056225548 306.754256106 250.33921605 c 0
 306.754256106 250.796995257 306.836230238 251.156620314 307.004882812 251.40625 c 1
 307.004882812 251.40625 322.829101562 253.696289062 340.169921875 279.36328125 c 0
 346.475585938 288.696289062 352.982421875 301.122070312 359.000976562 317.651367188 c 0
 362.729565287 327.891757371 364.534968907 340.485444614 364.534968907 354.34686892 c 0
 364.534968907 403.416093719 341.910573236 468.371951615 301.88671875 501.057617188 c 0
 298.639648438 503.709960938 295.4453125 506.094726562 292.295898438 508.22265625 c 0
 278.028038592 517.861907304 264.691057795 522.229618357 251.703352289 522.229618357 c 0
 222.22894422 522.229618357 194.553378832 499.734969468 161.87890625 465.309570312 c 0
 158.084960938 461.313476562 154.688476562 457.046875 151.661132812 452.56640625 c 0
 131.397587814 422.573327515 123.012928363 394.465366136 123.012928363 368.541341015 c 0
 123.012928363 278.528097407 224.0994806 214.844675289 280 190 c 1
 298.262609303 181.883284754 386.52217524 161.980531907 494.654872189 161.980531907 c 0
 600.025798205 161.980531907 724.267676622 180.87961235 821 248 c 1
 740.154672981 159.936340212 616.550156608 112.44763111 471.697362747 112.44763111 c 0
 415.876679109 112.44763111 356.900552909 119.499868355 296 134 c 0
 122.352244973 175.344703578 62.6634575422 256.575045814 62.6634575422 355.772195421 c 0
 62.6634575422 400.531307714 74.8157244441 448.948350548 94.134765625 499.009765625 c 0
 104.93567443 526.998151478 121.005859375 538.783203125 166.890625 558.470703125 c 0
 185.865902461 566.611657819 217.9039239 570.261246046 250.516038797 570.261246046 c 0
 293.793654703 570.261246046 338.082271006 563.834182472 354.196289062 552.947265625 c 0
 355.302734375 552.200195312 356.276367188 551.430664062 357.108398438 550.641601562 c 0
 429.716323269 480.950974335 445.327423698 403.501753296 445.327423698 349.780182775 c 0
 445.327423698 309.251577633 436.442382812 282.227539062 436.442382812 282.227539062 c 1xd9
581 228 m 1
 581 228 521 276 521 300 c 0xbb
 521 324 510 423 510 477 c 0
 510 531 547 615 583 615 c 0
 601 615 665.5 616.5 730.75 616.5 c 0
 838.132862765 616.5 888.39453125 615.999023438 913 500 c 0
 920.944425752 462.547707167 923.789604691 421.108107253 923.789604691 380.95883384 c 0
 923.789604691 279.602642844 905.657226562 186.469726562 905.657226562 186.469726562 c 1
 897 324 903.825195312 387.506835938 865 488 c 0
 853.35546875 518.139648438 870.99995038 530.99910691 763 537 c 0
 717.215820312 539.543945312 674.666992188 544.244140625 641.294921875 544.244140625 c 0
 598.4375 544.244140625 570.716796875 536.4921875 570.716796875 506.466796875 c 0xbd
 570.716796875 504.720703125 570.810053753 502.899462469 571 501 c 0
 577 441 601 397 601 328 c 0xbb
 601 259 581 228 581 228 c 1
EndSplineSet
Validated: 1
LCarets2: 1 473
Ligature2: "'liga' Standard Ligatures in Latin lookup 1-1" n d
EndChar

StartChar: e_n
Encoding: 267 -1 68
Width: 980
VWidth: 0
Flags: W
HStem: 167.087 63.9131<152.52 300.814> 534.81 49.9347<675.391 778.566>
VStem: 22.3174 78.6826<308.152 461.68> 376.366 80.5156<288.469 426.229> 521.351 82.9114<298.105 448.168> 850.957 62.511<255.159 454.675>
LayerCount: 2
Fore
SplineSet
263 585 m 1
 263 585 185 549 137 489 c 0
 102 445 101 417 101 363 c 0
 101 309 131 279 149 255 c 0
 167 231 239 231 269 231 c 0
 299 231 335 273 359 291 c 0
 372 301 376.366210938 320.067382812 376.366210938 342.271484375 c 0
 376.366210938 360.234375 373.68359375 380.216796875 371 399 c 0
 365.080078125 440.440429688 256.940429688 483.827148438 256.940429688 523.3984375 c 0
 256.940429688 523.932617188 256.959960938 524.466796875 257 525 c 0
 263 597 299 579 329 585 c 0
 329.741210938 585.1484375 330.512695312 585.220703125 331.310546875 585.220703125 c 0
 362.815429688 585.220703125 437.296875 472.258789062 449 443 c 0
 453.970703125 430.573242188 456.881835938 412.657226562 456.881835938 391.239257812 c 0
 456.881835938 360.951171875 451.05859375 323.662109375 437 285 c 0
 413 219 311 183 203 168 c 0
 198.565429688 167.383789062 194.202148438 167.086914062 189.91015625 167.086914062 c 0
 89.6806640625 167.086914062 28.75390625 329.216796875 23 381 c 0
 22.5361328125 385.17578125 22.3173828125 389.25 22.3173828125 393.2265625 c 0
 22.3173828125 440.674804688 53.46875 474.2421875 71 501 c 0
 119 573 263 585 263 585 c 1
525.880859375 305.228515625 m 1
 525.880859375 305.228515625 521.350907276 323.757871576 521.350907276 352.737127295 c 0
 521.350907276 406.875784009 537.160988715 497.485856484 627.853515625 571.887695312 c 0
 628.762695312 572.624023438 629.814453125 573.328125 631 574 c 0
 643.69105773 581.204738139 671.699807522 584.744356196 703.144020441 584.744356196 c 0
 746.644390278 584.744356196 796.71966892 577.970112065 821.91015625 564.75390625 c 0
 883.403054772 532.492804381 913.468251125 451.055612348 913.468251125 363.422988129 c 0
 913.468251125 236.014635383 849.916399017 95.5103698283 727 74 c 0
 668.461724316 63.7558017554 612.051183046 57.8841201307 548.153003409 57.8841201307 c 1
 548.153003409 57.8841201307 222.9163598 68.6802517877 222.9163598 94.0280417107 c 0
 222.9163598 94.0743881825 223.74912089 94.0944765852 225.348854648 94.0944765852 c 0
 235.766304721 94.0944765852 278.708007302 93.2426075307 336.006652526 93.2426075307 c 0
 471.414059934 93.2426075307 687 98 743 130 c 0
 792.957090628 158.547013458 850.957225195 266.239403334 850.957225195 364.159125469 c 0
 850.957225195 396.929039002 844.461326442 428.604433347 828.994140625 455.852539062 c 0
 826.271473189 460.648985617 823.155273438 465.255859375 819.61328125 469.62109375 c 0
 787.567248029 509.133161029 760.08959382 534.80967008 728.185804875 534.80967008 c 0
 716.351982462 534.80967008 703.909198043 531.277012485 690.3984375 523.607421875 c 0
 687.025390625 521.693359375 683.587890625 519.522460938 680.075195312 517.083984375 c 0
 633.358734894 484.643093524 604.262275559 412.386268184 604.262275559 361.320219869 c 0
 604.262275559 351.693259411 605.296355268 342.81941301 607.44140625 335.107421875 c 0
 612.250976562 317.819335938 617.881835938 304.668945312 623.5546875 294.676757812 c 0
 639.150390625 267.200195312 655.0625 263.6171875 655.0625 263.6171875 c 1
 655.184122508 263.402819189 655.243458281 263.120957171 655.243458281 262.777617232 c 0
 655.243458281 256.816080727 637.354528033 232.319785373 617.024414062 220.780273438 c 0
 610.507454335 217.080960004 603.740557654 214.712762417 597.231832036 214.712762417 c 0
 591.333402232 214.712762417 585.64699811 216.657669408 580.55078125 221.319335938 c 0
 570.455078125 230.837890625 525.880859375 305.228515625 525.880859375 305.228515625 c 1
EndSplineSet
Validated: 1
LCarets2: 1 488
Ligature2: "'liga' Standard Ligatures in Latin lookup 1-1" e n
EndChar

StartChar: s_s
Encoding: 268 -1 69
Width: 436
VWidth: 0
Flags: W
HStem: 748.059 37.6371<-61.0335 155.962> 849.734 20G<261.192 303.02>
VStem: 125.77 105.079<48.0871 348.652> 281.08 87.7505<155.338 181.49 255.402 558.392> 310.453 57.9604<448.291 775.659>
LayerCount: 2
Fore
SplineSet
281.080078125 187.849609375 m 1xf0
 281.080078125 187.849609375 282.66423407 187.885294975 285.406847534 187.885294975 c 0
 303.076465658 187.885294975 368.830597965 186.404079898 368.830597965 164.355836069 c 0
 368.830597965 96.842718454 297.719726562 90.6103515625 297.719726562 90.6103515625 c 1
 281.080078125 187.849609375 l 1xf0
131.3203125 -11.0498046875 m 1
 131.3203125 -11.0498046875 156.0781201 -7.28409931783 179.853034912 -7.28409931783 c 0
 201.812288773 -7.28409931783 222.933042053 -10.4966024329 222.933042053 -22.8559450836 c 0
 222.933042053 -89.9171180341 139.639648438 -112.709960938 139.639648438 -112.709960938 c 1
 131.3203125 -11.0498046875 l 1
28 833 m 1
 112.851722562 849.313961576 228.690465681 869.733542699 293.69362829 869.733542699 c 0
 312.345745254 869.733542699 326.812287744 868.052285661 335.16015625 864.110351562 c 0
 357.95486681 853.346496481 368.413277347 632.867683981 368.413277347 461.029093532 c 0xe8
 368.413277347 350.625089643 364.096159243 260.299240315 355.959960938 258.5703125 c 0
 344.210810003 256.073638612 325.824624204 240.884025046 309.799125458 240.884025046 c 0
 297.454298061 240.884025046 286.510300403 249.897529143 281.080078125 280.669921875 c 0xf0
 280.086858798 286.29837199 279.643444364 294.34416105 279.643444364 304.393539724 c 0
 279.643444364 388.161192227 310.452904823 611.142885376 310.452904823 733.704469945 c 0xe8
 310.452904823 781.183362774 305.829344539 813.592260258 293 817 c 0
 243.080078125 830.259765625 28 833 28 833 c 1
-134.919921875 744.76953125 m 1
 -36.5278547354 754.118993497 90.167282779 785.695852728 154.773149257 785.695852728 c 0
 174.161629405 785.695852728 187.958199429 782.851964309 193.719726562 775.709960938 c 0
 211.257243548 753.970411243 230.848560059 409.283421145 230.848560059 203.137647352 c 0
 230.848560059 115.890093824 227.339253845 53.4588180074 218.6796875 50.830078125 c 0
 206.33222807 47.0818235638 185.757555086 37.3734129719 167.104058809 37.3734129719 c 0
 145.100383823 37.3734129719 125.769944617 50.8822539268 125.769944617 103.617758559 c 0
 125.769944617 111.610733366 126.214015602 120.504847716 127.16015625 130.389648438 c 0
 136.199558657 224.828769726 163.242114093 495.82506333 163.242114093 643.122649353 c 0
 163.242114093 699.196389659 159.323111764 737.34373524 149 741 c 0
 133.60189936 746.453477242 82.8442412171 748.058762631 28.4169962368 748.058762631 c 0
 -49.4919692542 748.058762631 -134.919921875 744.76953125 -134.919921875 744.76953125 c 1
EndSplineSet
Validated: 1
LCarets2: 1 260
Ligature2: "'liga' Standard Ligatures in Latin lookup 1-1" s s
EndChar

StartChar: e_e
Encoding: 271 -1 70
Width: 768
VWidth: 0
Flags: W
HStem: 36.5886 56.573<446.003 571.526> 347.821 63.5337<151.224 271.885> 391.605 24.8799<481.035 582.234> 702 0.75<159 182.102>
VStem: 24.5066 62.3971<489.73 692.641> 313.927 64.8421<169.497 327.663> 361 55.5571<500.246 623.476> 660.402 50.8559<196.635 344.934>
LayerCount: 2
Fore
SplineSet
419 370 m 1xbd
 419 370 383 298 379 250 c 0
 378.846153846 248.153846154 378.769230769 246.201183432 378.769230769 244.153618571 c 0
 378.769230769 195.475893795 422.244457303 93.1615729694 509.194910371 93.1615729694 c 0
 513.68088597 93.1615729694 518.282582513 93.4339099015 523 94 c 4
 595.959699725 102.755163967 660.402410995 204.132577374 660.402410995 281.620317687 c 0
 660.402410995 310.338798898 651.550628209 335.775819835 631 352 c 0
 590.285714286 384.142857143 544.979591837 391.604591837 511.686042274 391.604591837 c 0
 482.831632653 391.604591837 463 386 463 386 c 1
 463 386 506.32 416.484444444 564.507851852 416.484444444 c 0
 598.195555556 416.484444444 636.866666667 406.266666667 675 374 c 0
 699.3647317 353.383623075 711.258266853 314.350874196 711.258266853 269.934429862 c 0
 711.258266853 167.561421425 648.076129316 36.5885574958 528.784768198 36.5885574958 c 0
 521.719510374 36.5885574958 514.457431157 37.0479875118 507 38 c 0
 361.742631175 56.5433895444 313.927112947 161.743415587 313.927112947 251.838036648 c 0
 313.927112947 269.381934265 315.740219425 286.353053239 319 302 c 0
 331.786034329 363.372964776 364.633024406 375.842488685 389.216668511 375.842488685 c 0
 406.044194265 375.842488685 419 370 419 370 c 1xbd
115 710 m 1
 115 710 103.000063504 681.999986392 91 626 c 0
 88.2297171491 613.072084918 86.9036957999 599.556631243 86.9036957999 585.871579379 c 0
 86.9036957999 501.812443432 136.933345736 411.354513033 209.590762925 411.354513033 c 0
 232.72760398 411.354513033 258.15895484 420.527163872 285 442 c 0
 328.884604707 477.107683765 361.000073951 520.774738777 361.000073951 565.17565204 c 0
 361.000073951 581.48064723 356.669237176 597.884604707 347 614 c 0
 311 674 159 702 155 702 c 0
 154 702 165 702.75 182.9375 702.75 c 0
 236.75 702.75 353 696 395 642 c 0
 410.197617545 622.460206014 416.557189973 599.385193982 416.557189973 575.093535127 c 0
 416.557189973 509.875578946 370.716838345 435.887926566 327 398 c 0
 296.29462263 371.388672946 242.806214068 347.820846427 190.254655604 347.820846427 c 0xdb
 140.117571952 347.820846427 90.8332291021 369.272781305 63 430 c 0
 38.7353195404 482.941121003 24.5065717706 543.181102144 24.5065717706 596.632084755 c 0
 24.5065717706 640.105652162 33.919090491 679.088200627 55 706 c 0
 68.7360167799 723.535545472 80.2390255105 729.215337238 89.3780920442 729.215337238 c 0
 106.187779461 729.215337238 115 710 115 710 c 1
EndSplineSet
Validated: 1
LCarets2: 1 344
Ligature2: "'liga' Standard Ligatures in Latin lookup 1-1" e e
EndChar
